<?xml version="1.0" encoding="UTF-8"?>
<svg viewBox="0 0 24 24" version="1.1" xmlns="http://www.w3.org/2000/svg" xmlns:xlink="http://www.w3.org/1999/xlink">
    <!-- Generator: Sketch 58 (84663) - https://sketch.com -->
    <title>Icon/Card/General</title>
    <desc>Created with Sketch.</desc>
    <g id="Icon/Card/General" stroke="none" stroke-width="1" fill="none" fill-rule="evenodd">
        <path d="M6.5,2 L17.5,2 C18.6045695,2 19.5,2.8954305 19.5,4 L19.5,20 C19.5,21.1045695 18.6045695,22 17.5,22 L6.5,22 C5.3954305,22 4.5,21.1045695 4.5,20 L4.5,4 C4.5,2.8954305 5.3954305,2 6.5,2 Z M6.5,3.2 C6.0581722,3.2 5.7,3.5581722 5.7,4 L5.7,20 C5.7,20.4418278 6.0581722,20.8 6.5,20.8 L17.5,20.8 C17.9418278,20.8 18.3,20.4418278 18.3,20 L18.3,4 C18.3,3.5581722 17.9418278,3.2 17.5,3.2 L6.5,3.2 Z" id="Rectangle" fill="#284B52"></path>
        <path d="M11.8275,14.38 L12.1575,14.38 C12.4725,14.38 12.6525,14.2 12.6675,13.885 L12.7425,7.195 C12.7425,6.88 12.5775,6.7 12.2475,6.7 L11.7375,6.7 C11.4225,6.7 11.2575,6.88 11.2575,7.195 L11.3325,13.885 C11.3325,14.2 11.5125,14.38 11.8275,14.38 Z M11.2575,16.795 L11.2575,16.315 C11.2575,15.985 11.4225,15.82 11.7525,15.82 L12.2625,15.82 C12.5925,15.82 12.7575,15.985 12.7575,16.315 L12.7575,16.795 C12.7575,17.125 12.5925,17.29 12.2625,17.29 L11.7525,17.29 C11.4225,17.29 11.2575,17.125 11.2575,16.795 Z" id="!" fill="#284B52" fill-rule="nonzero"></path>
    </g>
</svg>