<?xml version="1.0" encoding="UTF-8"?>
<svg viewBox="0 0 24 24" version="1.1" xmlns="http://www.w3.org/2000/svg" xmlns:xlink="http://www.w3.org/1999/xlink">
    <!-- Generator: Sketch 58 (84663) - https://sketch.com -->
    <title>Icon/Card/Audio</title>
    <desc>Created with Sketch.</desc>
    <g id="Icon/Card/Audio" stroke="none" stroke-width="1" fill="none" fill-rule="evenodd">
        <g id="volume-light" transform="translate(2.000000, 4.000000)" fill="#284B52">
            <path d="M14.2879167,5.39875 C13.9625,5.24041667 13.55875,5.37875 13.39875,5.71125 C13.24,6.04333333 13.3804167,6.44166667 13.7125,6.60041667 C14.3008333,6.88333333 14.6666667,7.41916667 14.6666667,8 C14.6666667,8.58083333 14.3008333,9.11666667 13.7125,9.39916667 C13.3804167,9.55791667 13.24,9.95666667 13.39875,10.2883333 C13.5595833,10.62375 13.9629167,10.75875 14.2879167,10.6008333 C15.34375,10.095 16,9.09833333 16,8 C16,6.90166667 15.34375,5.90458333 14.2879167,5.39875 L14.2879167,5.39875 Z M9.65875,0 C9.4125,0 9.16208333,0.0908333333 8.95958333,0.29375 L5.2525,4 L1,4 C0.4475,4 0,4.4475 0,5 L0,11 C0,11.5520833 0.4475,12 1,12 L5.2525,12 L8.95958333,15.70625 C9.1625,15.9091667 9.41291667,16 9.65875,16 C10.1725,16 10.6666667,15.6033333 10.6666667,14.9991667 L10.6666667,1.00083333 C10.6666667,0.39625 10.1720833,0 9.65875,0 Z M9.33333333,14.1945833 L5.80458333,10.6666667 L1.33333333,10.6666667 L1.33333333,5.33333333 L5.80458333,5.33333333 L9.33333333,1.80541667 L9.33333333,14.1945833 L9.33333333,14.1945833 Z M20,7.99958333 C20,5.24458333 18.5825,2.72375 16.2995833,1.42166667 C15.9791667,1.23916667 15.5666667,1.3475 15.38125,1.66708333 C15.1958333,1.98625 15.3075,2.39375 15.6295833,2.57791667 C17.495,3.6425 18.655,5.71958333 18.655,7.99958333 C18.655,10.2795833 17.495,12.3570833 15.6295833,13.42125 C15.3079167,13.6054167 15.19625,14.0129167 15.38125,14.3320833 C15.5604167,14.6395833 15.9670833,14.7670833 16.2995833,14.5775 C18.5825,13.2758333 20,10.755 20,7.99958333 Z" id="Shape"></path>
        </g>
    </g>
</svg>