<?xml version="1.0" encoding="UTF-8"?>
<svg viewBox="0 0 18 18" version="1.1" xmlns="http://www.w3.org/2000/svg" xmlns:xlink="http://www.w3.org/1999/xlink">
    <!-- Generator: Sketch 58 (84663) - https://sketch.com -->
    <title>Path</title>
    <desc>Created with Sketch.</desc>
    <g id="Symbols" stroke="none" stroke-width="1" fill="none" fill-rule="evenodd">
        <g id="Icon/Arrow-Backward" transform="translate(-3.000000, -3.000000)" fill="#284B52">
            <path d="M12.302776,20.8581556 L12.586879,20.5728832 C12.775156,20.3838045 12.775156,20.0772274 12.586879,19.8881083 L5.41523707,12.6859274 L20.5178566,12.6859274 C20.7841203,12.6859274 21,12.4691284 21,12.2017309 L21,11.7982338 C21,11.5308363 20.7841203,11.3140373 20.5178566,11.3140373 L5.41523707,11.3140373 L12.586879,4.1118564 C12.775156,3.92277766 12.775156,3.61620058 12.586879,3.42708149 L12.302776,3.14180905 C12.114499,2.95273032 11.8092219,2.95273032 11.6209449,3.14180905 L3.14120775,11.6576151 C2.95293075,11.8466938 2.95293075,12.1532709 3.14120775,12.34239 L11.6209449,20.858196 C11.8092219,21.0472747 12.114499,21.0472747 12.302776,20.8581556 Z" id="Path"></path>
        </g>
    </g>
</svg>