<?xml version="1.0" encoding="UTF-8"?>
<svg viewBox="0 0 24 24" version="1.1" xmlns="http://www.w3.org/2000/svg" xmlns:xlink="http://www.w3.org/1999/xlink">
    <!-- Generator: Sketch 58 (84663) - https://sketch.com -->
    <title>Icon/Card/Cover</title>
    <desc>Created with Sketch.</desc>
    <g id="Icon/Card/Cover" stroke="none" stroke-width="1" fill="none" fill-rule="evenodd">
        <polygon id="24pt-Bounding-Box" opacity="0" fill-rule="nonzero" points="0 0 24 0 24 24 0 24"></polygon>
        <g id="Group" transform="translate(1.999990, 2.000000)" fill="#284B52">
            <path d="M9.8947656,5.19004731 C8.81962521,5.19004731 7.94495074,5.97120362 7.94495074,6.93139191 C7.94495074,7.89158018 8.81962521,8.67273649 9.8947656,8.67273649 C10.969906,8.67273649 11.8445804,7.89158018 11.8445804,6.93139191 C11.8445804,5.97120362 10.969906,5.19004731 9.8947656,5.19004731 L9.8947656,5.19004731 Z M9.8947656,9.54699433 C8.30768883,9.54699433 7.01654188,8.37363006 7.01654188,6.93139191 C7.01654188,5.48915374 8.30768883,4.31578947 9.8947656,4.31578947 C11.4818424,4.31578947 12.7729894,5.48915374 12.7729894,6.93139191 C12.7729894,8.37363006 11.4818424,9.54699433 9.8947656,9.54699433 L9.8947656,9.54699433 Z M7.96353372,10.791784 C6.81233468,10.791784 5.87578548,11.6288012 5.87578548,12.6576035 L5.87578548,13.4667514 C5.87578548,13.5672276 5.9790608,13.652058 6.1012891,13.652058 L13.6882009,13.652058 C13.8104292,13.652058 13.9137046,13.5672276 13.9137046,13.4667514 L13.9137046,12.6576035 C13.9137046,11.6288012 12.9771554,10.791784 11.8259564,10.791784 C11.684405,10.791784 11.5329044,10.8327323 11.3342886,10.8905489 C10.9986438,10.9854433 10.5828291,11.1030323 9.8947656,11.1030323 C9.21348567,11.1030323 8.79787654,10.985484 8.46395852,10.8910379 L8.45676379,10.8890414 C8.27146847,10.8368883 8.11125195,10.791784 7.96353372,10.791784 L7.96353372,10.791784 Z M6.1012891,14.5263158 C5.46502767,14.5263158 4.94737662,14.0510295 4.94737662,13.4667514 L4.94737662,12.6576035 C4.94737662,11.1467105 6.30043942,9.91752612 7.96353372,9.91752612 C8.25942242,9.91752612 8.49031181,9.98508074 8.71359533,10.0503944 C9.0074284,10.1337987 9.34188089,10.2287745 9.8947656,10.2287745 C10.4568184,10.2287745 10.7870775,10.1329023 11.0784848,10.0483164 C11.3161167,9.98080255 11.5387424,9.91752612 11.8259564,9.91752612 C13.4890918,9.91752612 14.8421135,11.1467105 14.8421135,12.6576035 L14.8421135,13.4667514 C14.8421135,14.0510295 14.3245036,14.5263158 13.6882009,14.5263158 L6.1012891,14.5263158 Z" id="Fill-4"></path>
            <path d="M0.340204918,9.83606558 C0.249016394,9.83606558 0.164221311,9.79967213 0.101352459,9.73360656 C0.0396721311,9.66877049 0.0081147541,9.58422132 0.0125,9.49557377 C0.139836065,6.93184426 1.23532787,4.54143442 3.09713114,2.76463115 C4.9652459,0.981844262 7.41672131,0 10,0 C11.7754099,0 13.5190574,0.471270492 15.0425,1.36282787 C16.5212705,2.22827868 17.7615164,3.46688524 18.6291394,4.94475409 L18.9400409,5.47438524 L18.9214755,3.44508197 C18.9214755,3.26577868 19.0685656,3.11868853 19.2493443,3.11868853 L19.6591803,3.11868853 C19.839959,3.11868853 19.9870491,3.26577868 19.9870491,3.44655738 L20,6.88586065 C20,7.06602459 19.8529099,7.21311476 19.6721311,7.21311476 L16.5044672,7.21311476 C16.3236885,7.21311476 16.1765984,7.06602459 16.1765984,6.88524591 L16.1765984,6.47540983 C16.1765984,6.29463115 16.3236885,6.14754098 16.5044672,6.14754098 L18.0677459,6.14754098 L17.9444262,5.90848361 C17.2039344,4.47286885 16.0865164,3.26245902 14.7130738,2.40807377 C13.3011476,1.52979508 11.6713524,1.06557377 10,1.06557377 C5.24430328,1.06557377 1.32520492,4.7829918 1.07786885,9.52864754 C1.06885246,9.70102459 0.925163935,9.83606558 0.750696721,9.83606558 L0.340204918,9.83606558 Z M10,20 C8.22463114,20 6.48094262,19.5287295 4.95754099,18.6371721 C3.47872951,17.7717213 2.23848361,16.5331147 1.37090164,15.0552459 L1.05963114,14.5250409 L1.07856558,16.4779098 C1.07856558,16.6570902 0.931475409,16.8041394 0.750696721,16.8041394 L0.340860656,16.8041394 C0.160081967,16.8041394 0.0129918032,16.6570902 0.0129918032,16.4762705 L-3.55271368e-15,13.1140983 C-3.55271368e-15,12.9339754 0.147090164,12.7868853 0.327868853,12.7868853 L3.58131147,12.7868853 C3.76213114,12.7868853 3.90918032,12.9339754 3.90918032,13.1147541 L3.90918032,13.5245902 C3.90918032,13.7053688 3.76213114,13.8524591 3.58131147,13.8524591 L1.93180328,13.8524591 L2.05520492,14.0915574 C2.79635246,15.5279918 3.91557378,16.7390983 5.29188525,17.5938935 C6.70389344,18.4708606 8.33196722,18.9344262 10,18.9344262 C14.7564344,18.9344262 18.6755328,15.2169673 18.9222131,10.4713115 C18.9311885,10.2989754 19.074877,10.1639344 19.2493443,10.1639344 L19.659795,10.1639344 C19.7509836,10.1639344 19.8357787,10.2003279 19.8986476,10.2663934 C19.9603279,10.3312295 19.9918852,10.4157787 19.9875,10.5044262 C19.860164,13.0681558 18.7647131,15.4585656 16.9029099,17.2353688 C15.034795,19.0181558 12.5832787,20 10,20 L10,20 Z" id="Fill-1"></path>
        </g>
    </g>
</svg>