<?xml version="1.0" encoding="UTF-8"?>
<svg viewBox="0 0 24 24" version="1.1" xmlns="http://www.w3.org/2000/svg" xmlns:xlink="http://www.w3.org/1999/xlink">
    <!-- Generator: Sketch 58 (84663) - https://sketch.com -->
    <title>Icon/Eye/Line</title>
    <desc>Created with Sketch.</desc>
    <g id="Icon/Eye/Line" stroke="none" stroke-width="1" fill="none" fill-rule="evenodd">
        <polygon id="24pt-Bounding-Box" opacity="0" fill-rule="nonzero" points="0 0 24 0 24 24 0 24"></polygon>
        <path d="M12,12.7777778 C13.2272994,12.7777778 14.2222222,11.782855 14.2222222,10.5555556 C14.2222222,9.32825611 13.2272994,8.33333333 12,8.33333333 C11.9652778,8.33333333 11.9347222,8.34166667 11.9010417,8.34340278 C12.1196611,8.94546231 11.9699314,9.61965015 11.517013,10.0725685 C11.0640946,10.5254869 10.3899068,10.6752166 9.78784722,10.4565972 C9.78784722,10.4913194 9.77777778,10.521875 9.77777778,10.5555556 C9.77777778,11.782855 10.7727006,12.7777778 12,12.7777778 L12,12.7777778 Z M21.8791854,11.1597222 C19.9961957,7.48576389 16.2684109,5 12,5 C7.73158912,5 4.00276259,7.4875 2.12081458,11.1600694 C1.95972847,11.4787152 1.95972847,11.8549653 2.12081458,12.1736111 C4.00380426,15.8475694 7.73158912,18.3333333 12,18.3333333 C16.2684109,18.3333333 19.9972374,15.8458333 21.8791854,12.1732639 C22.0402715,11.8546181 22.0402715,11.478368 21.8791854,11.1597222 Z M12,6.11111111 C14.4545989,6.11111111 16.4444444,8.10095667 16.4444444,10.5555556 C16.4444444,13.0101544 14.4545989,15 12,15 C9.54540111,15 7.55555556,13.0101544 7.55555556,10.5555556 C7.55823467,8.10206725 9.54651169,6.11379022 12,6.11111111 Z M12,17.2222222 C8.27222222,17.2222222 4.86597222,15.1031886 3.11111111,11.6922046 C4.09806605,9.76358032 5.67641393,8.19793546 7.61736111,7.22222222 C6.89270833,8.15610395 6.44444444,9.31326014 6.44444444,10.5862011 C6.44444444,13.6403455 8.93175139,16.1162187 12,16.1162187 C15.0682486,16.1162187 17.5555556,13.6403455 17.5555556,10.5862011 C17.5555556,9.31326014 17.1072917,8.15610395 16.3826389,7.22222222 C18.3235861,8.19793546 19.9019339,9.76358032 20.8888889,11.6922046 C19.134375,15.1031886 15.7277778,17.2222222 12,17.2222222 Z" id="Shape" fill="#284B52"></path>
    </g>
</svg>