<?xml version="1.0" encoding="UTF-8"?>
<svg viewBox="0 0 18 18" version="1.1" xmlns="http://www.w3.org/2000/svg" xmlns:xlink="http://www.w3.org/1999/xlink">
    <!-- Generator: Sketch 58 (84663) - https://sketch.com -->
    <title>flag-light</title>
    <desc>Created with Sketch.</desc>
    <g id="Symbols" stroke="none" stroke-width="1" fill="none" fill-rule="evenodd">
        <g id="Icon/Flag/Line" transform="translate(-3.000000, -3.000000)" fill="#284B52">
            <g id="flag-light" transform="translate(3.000000, 3.000000)">
                <path d="M12.1059844,2.62501172 C10.1159297,2.62501172 8.52349219,1.40625 6.06522656,1.40625 C5.06373047,1.40625 4.17821484,1.59335156 3.35942578,1.91422266 C3.49991016,0.868816406 2.665125,-0.0396210937 1.61968359,0.0013359375 C0.756984375,0.0351210937 0.0503789063,0.729492187 0.002671875,1.59155859 C-0.0402890625,2.36742187 0.441316406,3.03686719 1.125,3.27860156 L1.125,17.578125 C1.125,17.8111055 1.31389453,18.0000025 1.546875,18.0000025 L1.828125,18.0000025 C2.06110547,18.0000025 2.25,17.8111055 2.25,17.578125 L2.25,13.3030547 C3.35471484,12.791918 4.78357031,12.2812734 7.01901562,12.2812734 C9.00907031,12.2812734 10.6015078,13.5000352 13.0597734,13.5000352 C14.8636406,13.5000352 16.291793,12.8940117 17.6303672,11.9899687 C17.8620117,11.8335234 18,11.571293 18,11.2917656 L18,2.09253516 C18,1.47557812 17.3599453,1.06766016 16.8003984,1.32753516 C15.5073516,1.92814453 13.7677148,2.62501172 12.1059844,2.62501172 Z M1.6875,0.984375 C2.07520312,0.984375 2.390625,1.29979687 2.390625,1.6875 C2.390625,2.07520312 2.07520312,2.390625 1.6875,2.390625 C1.29979687,2.390625 0.984375,2.07520312 0.984375,1.6875 C0.984375,1.29979687 1.29979687,0.984375 1.6875,0.984375 Z M16.875,11.1562383 C16.062293,11.7432422 14.6057344,12.375 13.0597734,12.375 C10.8233086,12.375 9.25421484,11.1562383 7.01901563,11.1562383 C5.40126563,11.1562383 3.42326953,11.5143398 2.25,12.0703008 L2.25,3.75001172 C3.06270703,3.16304297 4.51926563,2.53125 6.06522656,2.53125 C8.30169141,2.53125 9.87078516,3.75001172 12.1059844,3.75001172 C13.7203594,3.75001172 15.6995508,3.08861719 16.875,2.53125 L16.875,11.1562383 Z" id="Shape"></path>
            </g>
        </g>
    </g>
</svg>