<?xml version="1.0" encoding="UTF-8"?>
<svg viewBox="0 0 24 24" version="1.1" xmlns="http://www.w3.org/2000/svg" xmlns:xlink="http://www.w3.org/1999/xlink">
    <!-- Generator: Sketch 58 (84663) - https://sketch.com -->
    <title>Icon/Hand swipe/Line</title>
    <desc>Created with Sketch.</desc>
    <g id="Icon/Hand-swipe/Line" stroke="none" stroke-width="1" fill="none" fill-rule="evenodd">
        <polygon id="24pt-Bounding-Box" opacity="0" fill-rule="nonzero" points="0 0 24 0 24 24 0 24"></polygon>
        <g id="hand-point-up-light" transform="translate(3.000000, 2.000000)" fill="#284B52">
            <path d="M4.5,2.75 L4.5,7.5075 C4.02386719,7.29511719 3.44492187,7.12503906 2.75,7.12503906 C1.16882812,7.125 0,8.38621094 0,10 C0,11.8963281 2.10363281,12.2578125 2.98105469,12.8001172 C3.67484375,13.2322266 5.2103125,14.4746875 5.60386719,15.1797656 C5.24195312,15.39875 5,15.7960938 5,16.25 L5,18.75 C5,19.4403516 5.55964844,20 6.25,20 L15,20 C15.6903516,20 16.25,19.4403516 16.25,18.75 L16.25,16.25 C16.25,15.8919141 16.0991797,15.5692188 15.8578906,15.3413281 C16.1608984,13.9878516 17.5,12.5682031 17.5,10.4545313 L17.5,9.546875 C17.5,7.21851563 16.0904687,6.02125 14.1457031,6.08472656 C13.4774219,5.52613281 12.4990234,5.25351563 11.5873437,5.43492188 C11.1242187,5.15253906 10.5953516,4.99164063 10.0411719,4.97066406 C10.0274505,4.97015633 10.0137263,4.96972664 10,4.969375 L10,2.75 C10,1.25246094 8.75328125,0 7.25,0 C5.75933594,0 4.5,1.28007813 4.5,2.75 Z M6.25,18.75 L6.25,16.25 L15,16.25 L15,18.75 L6.25,18.75 Z M8.75,2.75 L8.75,6.62894531 C9.37511719,6.08191406 10.5749219,6.01464844 11.3515625,6.83988281 C12.1887109,6.36148437 13.2957422,6.76796875 13.6367187,7.39066406 C15.3041016,7.11269531 16.25,7.82007812 16.25,9.54695312 L16.25,10.4546094 C16.25,12.1865234 15.0286328,13.4500781 14.6538672,15.0000781 L6.89304687,15.0000781 C6.47484375,13.8346484 4.55640625,12.3085156 3.640625,11.7383594 C2.64398437,11.12125 1.25,10.9375 1.25,10 C1.25,9.0625 1.875,8.375 2.75,8.375 C4.25,8.375 5.01171875,9.5 5.75,9.5 L5.75,2.75 C5.75,1.96484375 6.453125,1.25 7.25,1.25 C8.05859375,1.25 8.75,1.94140625 8.75,2.75 Z M13.75,16.71875 C14.1814844,16.71875 14.53125,17.0685156 14.53125,17.5 C14.53125,17.9314844 14.1814844,18.28125 13.75,18.28125 C13.3185156,18.28125 12.96875,17.9314844 12.96875,17.5 C12.96875,17.0685156 13.3185156,16.71875 13.75,16.71875 Z" id="Shape"></path>
        </g>
    </g>
</svg>