<?xml version="1.0" encoding="UTF-8"?>
<svg viewBox="0 0 20 18" version="1.1" xmlns="http://www.w3.org/2000/svg" xmlns:xlink="http://www.w3.org/1999/xlink">
    <!-- Generator: Sketch 58 (84663) - https://sketch.com -->
    <title>Shape</title>
    <desc>Created with Sketch.</desc>
    <g id="Symbols" stroke="none" stroke-width="1" fill="none" fill-rule="evenodd">
        <g id="Icon/Home/Line" transform="translate(-2.000000, -3.000000)" fill="#284B52">
            <path d="M21.8828125,10.7015625 L12.7871094,3.2796875 C12.3268518,2.90846712 11.6700232,2.90846712 11.2097656,3.2796875 L2.1171875,10.7015625 C1.98363411,10.8104032 1.96336513,11.0068026 2.071875,11.140625 L2.46640625,11.6253906 C2.57477822,11.7583099 2.77002376,11.7790548 2.90390625,11.671875 L4.5,10.3679688 L4.5,19.8601563 C4.5,20.2053342 4.77982203,20.4851563 5.125,20.4851563 L10.125,20.4851563 C10.470178,20.4851563 10.75,20.2053342 10.75,19.8601563 L10.75,14.8601563 L13.25,14.871875 L13.25,19.875 C13.25,20.220178 13.529822,20.5 13.875,20.5 L18.875,20.4871094 C19.220178,20.4871094 19.5,20.2072873 19.5,19.8621094 L19.5,10.3679688 L21.0960937,11.671875 C21.2299772,11.7806497 21.4266761,11.7603679 21.5355469,11.6265625 L21.9300781,11.1417969 C21.9823393,11.0772106 22.0067303,10.994472 21.9978612,10.9118649 C21.9889921,10.8292577 21.947593,10.7535826 21.8828125,10.7015625 Z M18.2457031,19.2402344 L18.2496094,19.2402344 L14.4996094,19.2519531 L14.4996094,14.2453125 C14.4985445,13.9013376 14.2205324,13.622454 13.8765625,13.6203125 L10.1265625,13.6097656 C9.96046405,13.6092466 9.80099063,13.6748654 9.68335763,13.7921319 C9.56572463,13.9093985 9.49960856,14.0686664 9.49960938,14.2347656 L9.49960938,19.2402344 L5.75,19.2402344 L5.75,9.34804688 L12,4.24765625 L18.25,9.34804688 L18.2457031,19.2402344 Z" id="Shape"></path>
        </g>
    </g>
</svg>