<?xml version="1.0" encoding="UTF-8"?>
<svg viewBox="0 0 16 20" version="1.1" xmlns="http://www.w3.org/2000/svg" xmlns:xlink="http://www.w3.org/1999/xlink">
    <!-- Generator: Sketch 58 (84663) - https://sketch.com -->
    <title>Shape</title>
    <desc>Created with Sketch.</desc>
    <g id="Symbols" stroke="none" stroke-width="1" fill="none" fill-rule="evenodd">
        <g id="Icon/Pin/Line" transform="translate(-4.000000, -2.000000)" fill="#284B52">
            <path d="M12,5.75 C9.93222656,5.75 8.25,7.43222656 8.25,9.5 C8.25,11.5677734 9.93222656,13.25 12,13.25 C14.0677734,13.25 15.75,11.5677734 15.75,9.5 C15.75,7.43222656 14.0677734,5.75 12,5.75 Z M12,12 C10.6214844,12 9.5,10.8785156 9.5,9.5 C9.5,8.12148437 10.6214844,7 12,7 C13.3785156,7 14.5,8.12148437 14.5,9.5 C14.5,10.8785156 13.3785156,12 12,12 Z M12,2 C7.85785156,2 4.5,5.35785156 4.5,9.5 C4.5,12.5239453 5.55351563,13.3683984 11.2292187,21.5964844 C11.6016406,22.1344531 12.3983203,22.1345312 12.7708203,21.5964844 C18.4464844,13.3683984 19.5,12.5239453 19.5,9.5 C19.5,5.35785156 16.1421484,2 12,2 Z M12,20.5129297 C6.55878906,12.6440625 5.75,12.0192969 5.75,9.5 C5.75,7.83054687 6.40011719,6.26105469 7.58058594,5.08058594 C8.76105469,3.90011719 10.3305469,3.25 12,3.25 C13.6694531,3.25 15.2389453,3.90011719 16.4194141,5.08058594 C17.5998828,6.26105469 18.25,7.83054687 18.25,9.5 C18.25,12.0191406 17.4417187,12.6433594 12,20.5129297 Z" id="Shape"></path>
        </g>
    </g>
</svg>