<?xml version="1.0" encoding="UTF-8"?>
<svg viewBox="0 0 24 24" version="1.1" xmlns="http://www.w3.org/2000/svg" xmlns:xlink="http://www.w3.org/1999/xlink">
    <!-- Generator: Sketch 58 (84663) - https://sketch.com -->
    <title>Icon/Card/Reveal</title>
    <desc>Created with Sketch.</desc>
    <g id="Icon/Card/Reveal" stroke="none" stroke-width="1" fill="none" fill-rule="evenodd">
        <g id="eye-light-(1)" transform="translate(2.000000, 5.000000)" fill="#284B52">
            <path d="M10,7.77777778 C11.2272994,7.77777778 12.2222222,6.782855 12.2222222,5.55555556 C12.2222222,4.32825611 11.2272994,3.33333333 10,3.33333333 C9.96527778,3.33333333 9.93472222,3.34166667 9.90104167,3.34340278 C10.1196611,3.94546231 9.96993136,4.61965015 9.51701298,5.07256854 C9.0640946,5.52548692 8.38990676,5.67521662 7.78784722,5.45659722 C7.78784722,5.49131944 7.77777778,5.521875 7.77777778,5.55555556 C7.77777778,6.782855 8.77270056,7.77777778 10,7.77777778 L10,7.77777778 Z M19.8791667,6.15972222 C17.9961806,2.48576389 14.2684028,0 10,0 C5.73159722,0 2.00277778,2.4875 0.120833333,6.16006944 C-0.040252461,6.47871521 -0.040252461,6.85496534 0.120833333,7.17361111 C2.00381944,10.8475694 5.73159722,13.3333333 10,13.3333333 C14.2684028,13.3333333 17.9972222,10.8458333 19.8791667,7.17326389 C20.0402525,6.85461812 20.0402525,6.47836799 19.8791667,6.15972222 Z M10,1.11111111 C12.4545989,1.11111111 14.4444444,3.10095667 14.4444444,5.55555556 C14.4444444,8.01015444 12.4545989,10 10,10 C7.54540111,10 5.55555556,8.01015444 5.55555556,5.55555556 C5.55823467,3.10206725 7.54651169,1.11379022 10,1.11111111 Z M10,12.2222222 C6.27222222,12.2222222 2.86597222,10.0934028 1.11111111,6.66666667 C2.09806605,4.7291359 3.67641393,3.1562608 5.61736111,2.17604167 C4.89270833,3.11423611 4.44444444,4.27673611 4.44444444,5.55555556 C4.44444444,8.62380417 6.93175139,11.1111111 10,11.1111111 C13.0682486,11.1111111 15.5555556,8.62380417 15.5555556,5.55555556 C15.5555556,4.27673611 15.1072917,3.11423611 14.3826389,2.17604167 C16.3235861,3.1562608 17.9019339,4.7291359 18.8888889,6.66666667 C17.134375,10.0934028 13.7277778,12.2222222 10,12.2222222 Z" id="Shape"></path>
        </g>
    </g>
</svg>