<?xml version="1.0" encoding="UTF-8"?>
<svg viewBox="0 0 24 24" version="1.1" xmlns="http://www.w3.org/2000/svg" xmlns:xlink="http://www.w3.org/1999/xlink">
    <!-- Generator: Sketch 58 (84663) - https://sketch.com -->
    <title>Icon/Card/Signature</title>
    <desc>Created with Sketch.</desc>
    <g id="Icon/Card/Signature" stroke="none" stroke-width="1" fill="none" fill-rule="evenodd">
        <g id="file-signature-light-(1)" transform="translate(2.000000, 2.500000)" fill="#284B52">
            <path d="M19.473602,5.45364583 L18.6128231,4.58721902 C17.9103804,3.87981771 16.7725134,3.8791187 16.069029,4.58721902 L13.3335648,7.3325932 L13.3335648,5.31419271 C13.3335648,4.87031935 13.1564784,4.44042626 12.843973,4.12621985 L9.93142242,1.19455866 C9.618917,0.880002741 9.19529853,0.701754386 8.75466588,0.701754386 L1.66634837,0.701754386 C0.746540739,0.705249452 0,1.4566886 0,2.38253152 L0,16.9192092 C0,17.8450521 0.746540739,18.5964912 1.66634837,18.5964912 L11.6672164,18.5964912 C12.5870241,18.5964912 13.3335648,17.8450521 13.3335648,16.9192092 L13.3335648,14.1042832 C13.5519714,13.9407141 13.7717669,13.7774945 13.9648258,13.5817708 L19.4732547,8.01413103 C19.8131912,7.6723136 20,7.21760554 20,6.73388843 C20,6.25017133 19.8131912,5.79581277 19.473602,5.45364583 Z M8.8900849,1.84079633 C8.98730881,1.86526179 9.07411587,1.91419271 9.1470338,1.98758909 L12.0595844,4.91925027 C12.1325023,4.99264666 12.1811143,5.0800233 12.2054202,5.17788514 L8.8900849,5.17788514 L8.8900849,1.84079633 L8.8900849,1.84079633 Z M12.2227816,16.9192092 C12.2227816,17.2267749 11.9727773,17.4784197 11.6672164,17.4784197 L1.66634837,17.4784197 C1.36078751,17.4784197 1.11078317,17.2267749 1.11078317,16.9192092 L1.11078317,2.38253152 C1.11078317,2.07496573 1.36078751,1.82017544 1.66634837,1.82017544 L7.7789545,1.82017544 L7.7789545,5.45749041 C7.7789545,5.92233416 8.15048872,6.29385965 8.6123023,6.29385965 L12.2227816,6.29385965 L12.2227816,8.44437363 L10.5383774,10.1303934 C9.49183146,11.1775151 8.89182104,12.6297149 8.8900849,14.1147684 C8.75362419,14.1046327 8.63070539,14.0301878 8.56507925,13.8956277 C8.14944704,13.061705 6.9591486,12.8352248 6.2733728,13.4003769 L5.79141999,11.9457305 C5.67752912,11.6028646 5.35946805,11.3721902 5.00043404,11.3721902 C4.64140002,11.3721902 4.32333895,11.6025151 4.20944808,11.9457305 L3.57645098,13.855784 C3.52436674,14.015858 3.37575305,14.122807 3.20873626,14.122807 L2.777826,14.122807 C2.47087623,14.122807 2.2222608,14.3730537 2.2222608,14.6820175 C2.2222608,14.9909814 2.47087623,15.2412281 2.777826,15.2412281 L3.20873626,15.2412281 C3.85527527,15.2412281 4.42716019,14.8260143 4.63133041,14.2091351 L5.00008681,13.0945587 L5.5837775,14.8588679 C5.74141912,15.3310513 6.38726367,15.3771861 6.60810084,14.9315652 L6.87407767,14.3957717 C7.0133162,14.1137198 7.42269831,14.0955455 7.5761732,14.4076549 C7.82791368,14.9130414 8.33000573,15.2307429 8.88904321,15.2412281 L10.0001736,15.2412281 C10.7658119,15.2408786 11.5262418,15.0699698 12.2227816,14.7658991 L12.2227816,16.9192092 Z M13.1769649,12.793284 C12.3360593,13.6444134 11.1927044,14.1229203 10.0001736,14.122807 L10.0001736,14.1217585 C10.0001736,12.9212034 10.4758763,11.7699287 11.3217243,10.9234238 L15.5075609,6.73388843 L17.3409261,8.57928317 L13.1769649,12.793284 L13.1769649,12.793284 Z M18.6878244,7.22354715 L17.9520478,7.96415159 L16.1186826,6.11875685 L16.8548065,5.37815241 C17.1232139,5.10798383 17.5586382,5.10763432 17.8273928,5.37815241 L18.6881717,6.24457922 C18.9562319,6.51474781 18.9562319,6.95302906 18.6878244,7.22354715 L18.6878244,7.22354715 Z" id="Shape"></path>
        </g>
    </g>
</svg>