<?xml version="1.0" encoding="UTF-8"?>
<svg viewBox="0 0 24 24" version="1.1" xmlns="http://www.w3.org/2000/svg" xmlns:xlink="http://www.w3.org/1999/xlink">
    <!-- Generator: Sketch 58 (84663) - https://sketch.com -->
    <title>Icon/Card/Text</title>
    <desc>Created with Sketch.</desc>
    <g id="Icon/Card/Text" stroke="none" stroke-width="1" fill="none" fill-rule="evenodd">
        <g id="card-text" transform="translate(3.000000, 2.500000)" fill="#284B52" fill-rule="nonzero">
            <path d="M0.321428571,18.4419643 C0.233035714,18.4419643 0.160714286,18.3696429 0.160714286,18.28125 L0.160714286,17.6383929 C0.160714286,17.55 0.233035714,17.4776786 0.321428571,17.4776786 L17.6785714,17.4776786 C17.7669643,17.4776786 17.8392857,17.55 17.8392857,17.6383929 L17.8392857,18.28125 C17.8392857,18.3696429 17.7669643,18.4419643 17.6785714,18.4419643 L0.321428571,18.4419643 Z M0.321428571,13.2991071 C0.233035714,13.2991071 0.160714286,13.2267857 0.160714286,13.1383929 L0.160714286,12.4955357 C0.160714286,12.4071429 0.233035714,12.3348214 0.321428571,12.3348214 L17.6785714,12.3348214 C17.7669643,12.3348214 17.8392857,12.4071429 17.8392857,12.4955357 L17.8392857,13.1383929 C17.8392857,13.2267857 17.7669643,13.2991071 17.6785714,13.2991071 L0.321428571,13.2991071 Z M0.321428571,8.15625 C0.233035714,8.15625 0.160714286,8.08392857 0.160714286,7.99553571 L0.160714286,7.35267857 C0.160714286,7.26428571 0.233035714,7.19196429 0.321428571,7.19196429 L17.6785714,7.19196429 C17.7669643,7.19196429 17.8392857,7.26428571 17.8392857,7.35267857 L17.8392857,7.99553571 C17.8392857,8.08392857 17.7669643,8.15625 17.6785714,8.15625 L0.321428571,8.15625 Z M6.721875,3.01339286 C6.70580357,3.00133929 6.66964286,2.94107143 6.66964286,2.85267857 L6.66964286,2.20982143 C6.66964286,2.12142857 6.70178571,2.06116071 6.721875,2.04910714 L17.7910714,2.04910714 C17.8071429,2.06116071 17.8433036,2.12142857 17.8433036,2.20982143 L17.8433036,2.85267857 C17.8433036,2.94107143 17.8111607,3.00133929 17.7910714,3.01339286 L6.721875,3.01339286 Z" id="Shape"></path>
            <path d="M0.695089286,6.23571429 L3.07767857,0.028125 L3.96160714,0.028125 L6.50491071,6.23571429 L5.57276786,6.23571429 L4.84955357,4.35535714 L2.25,4.35535714 L1.56696429,6.23169643 L0.695089286,6.23169643 L0.695089286,6.23571429 Z M2.48705357,3.68839286 L4.59241071,3.68839286 L3.94553571,1.96875 C3.74866071,1.44241071 3.6,1.01651786 3.50357143,0.683035714 C3.42723214,1.08080357 3.31071429,1.47857143 3.16607143,1.86830357 L2.48705357,3.68839286 Z" id="Shape"></path>
        </g>
    </g>
</svg>