<?xml version="1.0" encoding="UTF-8"?>
<svg viewBox="0 0 24 24" version="1.1" xmlns="http://www.w3.org/2000/svg" xmlns:xlink="http://www.w3.org/1999/xlink">
    <!-- Generator: Sketch 58 (84663) - https://sketch.com -->
    <title>Icon/Card/Video</title>
    <desc>Created with Sketch.</desc>
    <g id="Icon/Card/Video" stroke="none" stroke-width="1" fill="none" fill-rule="evenodd">
        <g id="video-light" transform="translate(2.000000, 5.000000)" fill="#284B52">
            <path d="M18.8886645,1.11111111 C18.6733497,1.11111111 18.4545621,1.17361111 18.2566114,1.30902778 L14.4469286,3.73611111 L14.4469286,1.65972222 C14.4469286,0.743055556 13.6412345,0 12.6480081,0 L1.79892043,0 C0.805694093,0 0,0.743055556 0,1.65972222 L0,11.6736111 C0,12.5902778 0.805694093,13.3333333 1.79892043,13.3333333 L12.6480081,13.3333333 C13.6412345,13.3333333 14.4469286,12.5902778 14.4469286,11.6736111 L14.4469286,9.59722222 L18.2531386,12.0243056 C18.4510893,12.1631944 18.6733497,12.2222222 18.8851917,12.2222222 C19.4616797,12.2222222 19.9999834,11.7708333 19.9999834,11.1284722 L19.9999834,2.20486111 C20.0034396,1.5625 19.4651526,1.11111111 18.8886645,1.11111111 L18.8886645,1.11111111 Z M13.3356264,11.6736111 C13.3356264,11.9722222 13.0195998,12.2222222 12.6480081,12.2222222 L1.79892043,12.2222222 C1.42732876,12.2222222 1.1113022,11.9722222 1.1113022,11.6736111 L1.1113022,1.65972222 C1.1113022,1.36111111 1.42732876,1.11111111 1.79892043,1.11111111 L12.6480081,1.11111111 C13.0195998,1.11111111 13.3356264,1.36111111 13.3356264,1.65972222 L13.3356264,11.6736111 Z M18.8921374,11.1284722 L18.8504635,11.0833333 L14.4469286,8.27777778 L14.4469286,5.05208333 L18.8921374,2.22222222 L18.8921374,11.1284722 Z" id="Shape"></path>
        </g>
    </g>
</svg>