<?xml version="1.0" encoding="UTF-8"?>
<svg viewBox="0 0 24 24" version="1.1" xmlns="http://www.w3.org/2000/svg" xmlns:xlink="http://www.w3.org/1999/xlink">
    <!-- Generator: Sketch 58 (84663) - https://sketch.com -->
    <title>Icon/--Brand/LinkedIn</title>
    <desc>Created with Sketch.</desc>
    <g id="Icon/--Brand/LinkedIn" stroke="none" stroke-width="1" fill="none" fill-rule="evenodd">
        <rect id="24pt-Bounding-Box" x="0" y="0" width="24" height="24"></rect>
        <g id="linkedin-in-brands" transform="translate(2.000000, 2.000000)" fill="#284B52">
            <path d="M4.47678571,20 L0.330357143,20 L0.330357143,6.64732143 L4.47678571,6.64732143 L4.47678571,20 Z M2.40133929,4.82589286 C1.07544643,4.82589286 0,3.72767857 0,2.40178571 C0,1.07556266 1.07511623,0.000446464354 2.40133929,0.000446464354 C3.72756234,0.000446464354 4.80267857,1.07556266 4.80267857,2.40178571 C4.80267857,3.72767857 3.72678571,4.82589286 2.40133929,4.82589286 Z M19.9955357,20 L15.8580357,20 L15.8580357,13.5 C15.8580357,11.9508929 15.8267857,9.96428571 13.7022321,9.96428571 C11.5464286,9.96428571 11.2160714,11.6473214 11.2160714,13.3883929 L11.2160714,20 L7.07410714,20 L7.07410714,6.64732143 L11.0508929,6.64732143 L11.0508929,8.46875 L11.1089286,8.46875 C11.6625,7.41964286 13.0147321,6.3125 15.0321429,6.3125 C19.2285714,6.3125 20,9.07589286 20,12.6651786 L20,20 L19.9955357,20 Z" id="Shape"></path>
        </g>
    </g>
</svg>