<?xml version="1.0" encoding="UTF-8"?>
<svg viewBox="0 0 24 24" version="1.1" xmlns="http://www.w3.org/2000/svg" xmlns:xlink="http://www.w3.org/1999/xlink">
    <!-- Generator: Sketch 59.1 (86144) - https://sketch.com -->
    <title>Icon/Broadcast/Line</title>
    <desc>Created with Sketch.</desc>
    <g id="Icon/Broadcast/Line" stroke="none" stroke-width="1" fill="none" fill-rule="evenodd">
        <polygon id="24pt-Bounding-Box" opacity="0" fill-rule="nonzero" points="0 0 24 0 24 24 0 24"></polygon>
        <g id="broadcast-tower-light" transform="translate(2.000000, 3.000000)" fill="#284B52">
            <path d="M1.40798611,0 C1.19270833,0 0.992361111,0.122569444 0.903125,0.318402778 C0.328125,1.57743056 0,2.971875 0,4.44444444 C0,5.91666667 0.328125,7.31145833 0.903125,8.57048611 C0.992708333,8.76631944 1.19305556,8.88888889 1.40798611,8.88888889 C1.81423611,8.88888889 2.07465278,8.46944444 1.90590278,8.1 C1.39791667,6.984375 1.11111111,5.74826389 1.11111111,4.44444444 C1.11111111,3.140625 1.39791667,1.90451389 1.90625,0.788888889 C2.07465278,0.419444444 1.81458333,0 1.40798611,0 Z M11.3347222,6.20972222 C11.8704861,5.80347222 12.2222222,5.16701389 12.2222222,4.44444444 C12.2222222,3.21875 11.225,2.22222222 10,2.22222222 C8.775,2.22222222 7.77777778,3.21875 7.77777778,4.44444444 C7.77777778,5.17083333 8.13298611,5.81076389 8.67326389,6.21631944 L3.91180556,17.1677083 C3.85069444,17.3083333 3.91527778,17.4722222 4.05590278,17.5333333 L4.56631944,17.7548611 C4.70694444,17.8159722 4.87048611,17.7513889 4.93159722,17.6107639 L7.27465278,12.2222222 L12.7364583,12.2222222 L15.0791667,17.6107639 C15.1402778,17.7513889 15.3038194,17.8159722 15.4444444,17.7548611 L15.9548611,17.5333333 C16.0955906,17.4721346 16.1600948,17.3084649 16.0989583,17.1677083 L11.3347222,6.20972222 Z M10,3.33333333 C10.6135417,3.33333333 11.1111111,3.83090278 11.1111111,4.44444444 C11.1111111,5.05798611 10.6135417,5.55555556 10,5.55555556 C9.38645833,5.55555556 8.88888889,5.05798611 8.88888889,4.44444444 C8.88888889,3.83090278 9.38645833,3.33333333 10,3.33333333 Z M7.75763889,11.1111111 L9.703125,6.63645833 C9.80104167,6.64965278 9.89826389,6.66666667 10,6.66666667 C10.1052083,6.66666667 10.20625,6.64965278 10.3076389,6.63541667 L12.2534722,11.1111111 L7.75763889,11.1111111 Z M4.13159722,6.66666667 C4.503125,6.66666667 4.76006944,6.31111111 4.65763889,5.95381944 C4.51979167,5.47395833 4.44444444,4.96840278 4.44444444,4.44444444 C4.44444444,3.92048611 4.51979167,3.41493056 4.65763889,2.93506944 C4.76006944,2.57777778 4.503125,2.22222222 4.13159722,2.22222222 L4.12638889,2.22222222 C3.88576389,2.22222222 3.66527778,2.37569444 3.59826389,2.60659722 C3.428125,3.190625 3.33333333,3.80625 3.33333333,4.44444444 C3.33333333,5.08263889 3.428125,5.69826389 3.59826389,6.28229167 C3.665625,6.51354167 3.88576389,6.66666667 4.12638889,6.66666667 L4.13159722,6.66666667 L4.13159722,6.66666667 Z M15.8736111,2.22222222 L15.8684028,2.22222222 C15.496875,2.22222222 15.2399306,2.57777778 15.3423611,2.93506944 C15.4802083,3.41493056 15.5555556,3.92048611 15.5555556,4.44444444 C15.5555556,4.96840278 15.4802083,5.47395833 15.3423611,5.95381944 C15.2399306,6.31111111 15.496875,6.66666667 15.8684028,6.66666667 L15.8736111,6.66666667 C16.1145833,6.66666667 16.3347222,6.51319444 16.4020833,6.28229167 C16.571875,5.69826389 16.6666667,5.08298611 16.6666667,4.44444444 C16.6666667,3.80590278 16.571875,3.190625 16.4020833,2.60659722 C16.3347222,2.37569444 16.1142361,2.22222222 15.8736111,2.22222222 Z M19.096875,0.318402778 C19.0072917,0.122569444 18.8072917,0 18.5920139,0 C18.1857639,0 17.9256944,0.419444444 18.0940972,0.788888889 C18.6020833,1.90451389 18.8888889,3.140625 18.8888889,4.44444444 C18.8888889,5.74826389 18.6020833,6.984375 18.09375,8.1 C17.9253472,8.46979167 18.1854167,8.88888889 18.5916667,8.88888889 C18.8069444,8.88888889 19.0072917,8.76631944 19.0965278,8.57048611 C19.6722222,7.31145833 20,5.91666667 20,4.44444444 C20,2.971875 19.6722222,1.57743056 19.096875,0.318402778 Z" id="Shape"></path>
        </g>
    </g>
</svg>