<?xml version="1.0" encoding="UTF-8"?>
<svg viewBox="0 0 24 24" version="1.1" xmlns="http://www.w3.org/2000/svg" xmlns:xlink="http://www.w3.org/1999/xlink">
    <!-- Generator: Sketch 58 (84663) - https://sketch.com -->
    <title>Icon/Calendar_day/Line</title>
    <desc>Created with Sketch.</desc>
    <g id="Icon/Calendar_day/Line" stroke="none" stroke-width="1" fill="none" fill-rule="evenodd">
        <polygon id="24pt-Bounding-Box" opacity="0" fill-rule="nonzero" points="0 0 24 0 24 24 0 24"></polygon>
        <path d="M19.4642857,3.71428571 L17.4285714,3.71428571 L17.4285714,1.33928571 C17.4285714,1.15267857 17.2758929,1 17.0892857,1 L16.4107143,1 C16.2241071,1 16.0714286,1.15267857 16.0714286,1.33928571 L16.0714286,3.71428571 L7.92857143,3.71428571 L7.92857143,1.33928571 C7.92857143,1.15267857 7.77589286,1 7.58928571,1 L6.91071429,1 C6.72410714,1 6.57142857,1.15267857 6.57142857,1.33928571 L6.57142857,3.71428571 L4.53571429,3.71428571 C3.41183036,3.71428571 2.5,4.62611607 2.5,5.75 L2.5,20.6785714 C2.5,21.8024554 3.41183036,22.7142857 4.53571429,22.7142857 L19.4642857,22.7142857 C20.5881696,22.7142857 21.5,21.8024554 21.5,20.6785714 L21.5,5.75 C21.5,4.62611607 20.5881696,3.71428571 19.4642857,3.71428571 Z M20.1428571,20.6785714 C20.1428571,21.0517857 19.8375,21.3571429 19.4642857,21.3571429 L4.53571429,21.3571429 C4.1625,21.3571429 3.85714286,21.0517857 3.85714286,20.6785714 L3.85714286,9.14285714 L20.1428571,9.14285714 L20.1428571,20.6785714 Z M20.1428571,7.78571429 L3.85714286,7.78571429 L3.85714286,5.75 C3.85714286,5.37678571 4.1625,5.07142857 4.53571429,5.07142857 L19.4642857,5.07142857 C19.8375,5.07142857 20.1428571,5.37678571 20.1428571,5.75 L20.1428571,7.78571429 Z M7.25,17.2857143 L11.3214286,17.2857143 C11.6946429,17.2857143 12,16.9803571 12,16.6071429 L12,12.5357143 C12,12.1625 11.6946429,11.8571429 11.3214286,11.8571429 L7.25,11.8571429 C6.87678571,11.8571429 6.57142857,12.1625 6.57142857,12.5357143 L6.57142857,16.6071429 C6.57142857,16.9803571 6.87678571,17.2857143 7.25,17.2857143 Z M7.92857143,13.2142857 L10.6428571,13.2142857 L10.6428571,15.9285714 L7.92857143,15.9285714 L7.92857143,13.2142857 Z" id="Shape" fill="#284B52"></path>
    </g>
</svg>