<?xml version="1.0" encoding="UTF-8"?>
<svg viewBox="0 0 24 24" version="1.1" xmlns="http://www.w3.org/2000/svg" xmlns:xlink="http://www.w3.org/1999/xlink">
    <!-- Generator: Sketch 58 (84663) - https://sketch.com -->
    <title>Icon/Cards/Line</title>
    <desc>Created with Sketch.</desc>
    <g id="Icon/Cards/Line" stroke="none" stroke-width="1" fill="none" fill-rule="evenodd">
        <polygon id="24pt-Bounding-Box" opacity="0" fill-rule="nonzero" points="0 0 24 0 24 24 0 24"></polygon>
        <path d="M22,12.0005129 C22,11.6106739 21.7730469,11.2606782 21.4230469,11.1095081 L17.5269531,9.41929443 L21.4214844,7.72947134 C21.7730469,7.57752007 22,7.22791497 22,6.83846661 C22,6.44901825 21.7730469,6.09941314 21.4230469,5.94824312 L12.6226562,2.13032104 C12.228125,1.95688566 11.7746094,1.95649504 11.3777344,2.1295398 L2.57851562,5.9478525 C2.22695312,6.09980376 2,6.44940887 2,6.83885723 C2,7.22830559 2.22695312,7.57791069 2.57695312,7.72908072 L6.47265625,9.41968505 L2.578125,11.1095081 C2.22695312,11.2610688 2,11.6106739 2,12.0005129 C2,12.3899612 2.22695312,12.7395663 2.57695312,12.8907364 L6.47226562,14.5805595 L2.578125,16.2699919 C2.22695312,16.4223338 2,16.7719389 2,17.1617779 C2,17.5512263 2.22695312,17.9008314 2.57695312,18.0520014 L11.3785156,21.8707047 C11.5745492,21.9557511 11.7859223,21.9997534 11.9996094,22 C12.2113281,22 12.4230469,21.9570318 12.6207031,21.8707047 L21.4210937,18.0527826 C21.7726562,17.9008314 21.9996094,17.5512263 21.9996094,17.1617779 C21.9996094,16.7719389 21.7726562,16.4219432 21.4226562,16.2707732 L17.5273437,14.5809501 L21.4214844,12.8915176 C21.7730469,12.7395663 22,12.3899612 22,12.0005129 L22,12.0005129 Z M3.76679688,6.83885723 L11.8929688,3.31311908 L11.8941406,3.31233784 C11.9621094,3.28460381 12.0367188,3.28265071 12.1070313,3.31311908 L20.2332031,6.83885723 L12.1070313,10.364986 C12.0363281,10.3950638 11.9609375,10.3950638 11.8929688,10.364986 L3.76679688,6.83885723 Z M20.2332031,17.1617779 L12.1070313,20.687516 C12.0363281,20.7175938 11.9609375,20.7175938 11.8929688,20.687516 L3.76679688,17.1613873 L8.09335938,15.2840665 L11.3789063,16.7094397 C11.5749398,16.794486 11.7863129,16.8384883 12,16.838735 C12.2117188,16.838735 12.4234375,16.7957667 12.6210938,16.7094397 L15.9066406,15.2840665 L20.2332031,17.1617779 L20.2332031,17.1617779 Z M12.1070313,15.526251 C12.0363281,15.5563288 11.9609375,15.5563288 11.8929688,15.526251 L3.76679688,12.0001223 L8.09375,10.1228015 L11.3789063,11.5485653 C11.5749398,11.6336116 11.7863129,11.6776139 12,11.6778606 C12.2117188,11.6778606 12.4234375,11.6348923 12.6210938,11.5485653 L15.90625,10.1231921 L20.2332031,12.0009035 L12.1070313,15.526251 Z" id="Shape" fill="#284B52"></path>
    </g>
</svg>