<?xml version="1.0" encoding="UTF-8"?>
<svg viewBox="0 0 24 24" version="1.1" xmlns="http://www.w3.org/2000/svg" xmlns:xlink="http://www.w3.org/1999/xlink">
    <!-- Generator: Sketch 58 (84663) - https://sketch.com -->
    <title>Icon/Chat/Line</title>
    <desc>Created with Sketch.</desc>
    <g id="Icon/Chat/Line" stroke="none" stroke-width="1" fill="none" fill-rule="evenodd">
        <polygon id="24pt-Bounding-Box" opacity="0" fill-rule="nonzero" points="0 0 24 0 24 24 0 24"></polygon>
        <path d="M12.0012961,4.74983799 C16.8248896,4.74983799 20.750162,7.83537553 20.750162,11.6239469 C20.750162,15.4125183 16.8248896,18.4980559 12.0012961,18.4980559 C10.8959706,18.4980559 9.80236237,18.3301089 8.75171731,17.9981207 L8.15804427,17.810645 L7.65029759,18.1699734 C6.75197653,18.8066096 5.36543751,19.5487009 3.64300453,19.7166479 C4.11169378,19.1268806 4.80691616,18.1387274 5.23654797,16.9982503 L5.51385577,16.2678762 L4.97876888,15.6976376 C3.85000895,14.50248 3.25243016,13.0925066 3.25243016,11.6239469 C3.25243016,7.83537553 7.1777026,4.74983799 12.0012961,4.74983799 L12.0012961,4.74983799 Z M12.0012961,3.5 C6.47857447,3.5 2.00259217,7.1362474 2.00259217,11.6239469 C2.00259217,13.4830809 2.77983517,15.1859852 4.0687306,16.5569012 C3.48677478,18.0957643 2.27599423,19.4002827 2.25646551,19.4159056 C1.99868643,19.6893077 1.92838304,20.0876936 2.0768013,20.431399 C2.22521956,20.7751045 2.56111352,20.9977318 2.93606492,20.9977318 C5.33809731,20.9977318 7.23238301,19.9939557 8.36895443,19.1893725 C9.50162011,19.5447952 10.7202121,19.7478939 12.0012961,19.7478939 C17.5240177,19.7478939 22,16.1116465 22,11.6239469 C22,7.1362474 17.5240177,3.5 12.0012961,3.5 Z" id="Shape" fill="#284B52"></path>
    </g>
</svg>