<?xml version="1.0" encoding="UTF-8"?>
<svg viewBox="0 0 24 24" version="1.1" xmlns="http://www.w3.org/2000/svg" xmlns:xlink="http://www.w3.org/1999/xlink">
    <!-- Generator: Sketch 58 (84663) - https://sketch.com -->
    <title>Icon/Card/Checklist</title>
    <desc>Created with Sketch.</desc>
    <g id="Icon/Card/Checklist" stroke="none" stroke-width="1" fill="none" fill-rule="evenodd">
        <g id="clipboard-list-check-light" transform="translate(4.500000, 2.000000)" fill="#284B52">
            <path d="M13.125,2.5 L9.6640625,2.5 C9.6796875,2.3984375 9.6875,2.29296875 9.6875,2.1875 C9.6875,0.98046875 8.70703125,0 7.5,0 C6.29296875,0 5.3125,0.98046875 5.3125,2.1875 C5.3125,2.29296875 5.3203125,2.3984375 5.3359375,2.5 L1.875,2.5 C0.83984375,2.5 0,3.33984375 0,4.375 L0,18.125 C0,19.1601562 0.83984375,20 1.875,20 L13.125,20 C14.1601562,20 15,19.1601562 15,18.125 L15,4.375 C15,3.33984375 14.1601562,2.5 13.125,2.5 Z M7.5,1.25 C8.01953125,1.25 8.4375,1.66796875 8.4375,2.1875 C8.4375,2.70703125 8.01953125,3.125 7.5,3.125 C6.98046875,3.125 6.5625,2.70703125 6.5625,2.1875 C6.5625,1.66796875 6.98046875,1.25 7.5,1.25 Z M13.75,18.125 C13.75,18.46875 13.46875,18.75 13.125,18.75 L1.875,18.75 C1.53125,18.75 1.25,18.46875 1.25,18.125 L1.25,4.375 C1.25,4.03125 1.53125,3.75 1.875,3.75 L3.75,3.75 L3.75,4.53125 C3.75,4.7890625 3.9609375,5 4.21875,5 L10.78125,5 C11.0390625,5 11.25,4.7890625 11.25,4.53125 L11.25,3.75 L13.125,3.75 C13.46875,3.75 13.75,4.03125 13.75,4.375 L13.75,18.125 Z M4.375,12.8125 C3.85546875,12.8125 3.4375,13.2304688 3.4375,13.75 C3.4375,14.2695312 3.85546875,14.6875 4.375,14.6875 C4.89453125,14.6875 5.3125,14.2695312 5.3125,13.75 C5.3125,13.2304688 4.89453125,12.8125 4.375,12.8125 Z M10.9375,13.125 L6.5625,13.125 C6.390625,13.125 6.25,13.265625 6.25,13.4375 L6.25,14.0625 C6.25,14.234375 6.390625,14.375 6.5625,14.375 L10.9375,14.375 C11.109375,14.375 11.25,14.234375 11.25,14.0625 L11.25,13.4375 C11.25,13.265625 11.109375,13.125 10.9375,13.125 Z M4.9296875,10.5625 L7.4375,8.078125 C7.51953125,7.99609375 7.51953125,7.86328125 7.4375,7.78125 L6.9453125,7.28515625 C6.86328125,7.203125 6.73046875,7.203125 6.6484375,7.28515625 L4.7890625,9.12890625 L3.984375,8.3125 C3.90234375,8.23046875 3.76953125,8.23046875 3.6875,8.3125 L3.19140625,8.8046875 C3.109375,8.88671875 3.109375,9.01953125 3.19140625,9.1015625 L4.640625,10.5625 C4.71484375,10.6445313 4.84765625,10.6445313 4.9296875,10.5625 L4.9296875,10.5625 Z M10.9375,9.375 L7.90625,9.375 L6.64453125,10.625 L10.9375,10.625 C11.109375,10.625 11.25,10.484375 11.25,10.3125 L11.25,9.6875 C11.25,9.515625 11.109375,9.375 10.9375,9.375 Z" id="Shape"></path>
        </g>
    </g>
</svg>