<?xml version="1.0" encoding="UTF-8"?>
<svg viewBox="0 0 24 24" version="1.1" xmlns="http://www.w3.org/2000/svg" xmlns:xlink="http://www.w3.org/1999/xlink">
    <!-- Generator: Sketch 58 (84663) - https://sketch.com -->
    <title>Icon/Checkmark Circle 2/Line</title>
    <desc>Created with Sketch.</desc>
    <g id="Icon/Checkmark-Circle-2/Line" stroke="none" stroke-width="1" fill="none" fill-rule="evenodd">
        <polygon id="24pt-Bounding-Box" opacity="0" fill-rule="nonzero" points="0 0 24 0 24 24 0 24"></polygon>
        <path d="M12,2 C6.4771371,2 2,6.4771371 2,12 C2,17.5228629 6.4771371,22 12,22 C17.5228629,22 22,17.5228629 22,12 C22,6.4771371 17.5228629,2 12,2 Z M12,20.7096774 C7.21516129,20.7096774 3.29032258,16.8364919 3.29032258,12 C3.29032258,7.21520161 7.16350806,3.29032258 12,3.29032258 C16.7848387,3.29032258 20.7096774,7.16350806 20.7096774,12 C20.7096774,16.7847984 16.8364919,20.7096774 12,20.7096774 Z M17.7108871,9.62254032 L10.4334677,16.8415726 C10.24375,17.0297581 9.93737903,17.0285484 9.74919355,16.8388306 L6.28637097,13.3480242 C6.09818548,13.1583065 6.09939516,12.8519355 6.2891129,12.66375 L6.63266129,12.3229839 C6.82237903,12.1347984 7.12875,12.1360081 7.31693548,12.3257258 L10.0982258,15.1294758 L16.6885887,8.59197581 C16.8783065,8.40379032 17.1846774,8.405 17.3728629,8.59471774 L17.713629,8.93826613 C17.9018548,9.12798387 17.9006048,9.43435484 17.7108871,9.62254032 L17.7108871,9.62254032 Z" id="Shape" fill="#284B52"></path>
    </g>
</svg>