<?xml version="1.0" encoding="UTF-8"?>
<svg viewBox="0 0 24 24" version="1.1" xmlns="http://www.w3.org/2000/svg" xmlns:xlink="http://www.w3.org/1999/xlink">
    <!-- Generator: Sketch 58 (84663) - https://sketch.com -->
    <title>Icon/Clock/Line</title>
    <desc>Created with Sketch.</desc>
    <g id="Icon/Clock/Line" stroke="none" stroke-width="1" fill="none" fill-rule="evenodd">
        <polygon id="24pt-Bounding-Box" opacity="0" fill-rule="nonzero" points="0 0 24 0 24 24 0 24"></polygon>
        <path d="M12,2 C6.47580645,2 2,6.47580645 2,12 C2,17.5241935 6.47580645,22 12,22 C17.5241935,22 22,17.5241935 22,12 C22,6.47580645 17.5241935,2 12,2 Z M20.7096774,12 C20.7096774,16.7862903 16.8346774,20.7096774 12,20.7096774 C7.21370968,20.7096774 3.29032258,16.8346774 3.29032258,12 C3.29032258,7.21370968 7.16532258,3.29032258 12,3.29032258 C16.7862903,3.29032258 20.7096774,7.16532258 20.7096774,12 Z M14.7056452,15.5604839 L11.4314516,13.1814516 C11.3064516,13.0887097 11.233871,12.9435484 11.233871,12.7903226 L11.233871,6.35483871 C11.233871,6.08870968 11.4516129,5.87096774 11.7177419,5.87096774 L12.2822581,5.87096774 C12.5483871,5.87096774 12.766129,6.08870968 12.766129,6.35483871 L12.766129,12.2540323 L15.608871,14.3225806 C15.8266129,14.4798387 15.8709677,14.7822581 15.7137097,15 L15.3830645,15.4556452 C15.2258065,15.6693548 14.9233871,15.7177419 14.7056452,15.5604839 L14.7056452,15.5604839 Z" id="Shape" fill="#284B52"></path>
    </g>
</svg>