<?xml version="1.0" encoding="UTF-8"?>
<svg viewBox="0 0 24 24" version="1.1" xmlns="http://www.w3.org/2000/svg" xmlns:xlink="http://www.w3.org/1999/xlink">
    <!-- Generator: Sketch 58 (84663) - https://sketch.com -->
    <title>Icon/Card/Comment</title>
    <desc>Created with Sketch.</desc>
    <g id="Icon/Card/Comment" stroke="none" stroke-width="1" fill="none" fill-rule="evenodd">
        <g id="comment-lines-light" transform="translate(2.000000, 3.000000)" fill="#284B52">
            <path d="M10.9551657,9.35672515 L5.3411306,9.35672515 C5.16959064,9.35672515 5.02923977,9.49707602 5.02923977,9.66861598 L5.02923977,10.2923977 C5.02923977,10.4639376 5.16959064,10.6042885 5.3411306,10.6042885 L10.9551657,10.6042885 C11.1267057,10.6042885 11.2670565,10.4639376 11.2670565,10.2923977 L11.2670565,9.66861598 C11.2670565,9.49707602 11.1267057,9.35672515 10.9551657,9.35672515 Z M14.6978558,5.61403509 L5.3411306,5.61403509 C5.16959064,5.61403509 5.02923977,5.75438596 5.02923977,5.92592593 L5.02923977,6.5497076 C5.02923977,6.72124756 5.16959064,6.86159844 5.3411306,6.86159844 L14.6978558,6.86159844 C14.8693957,6.86159844 15.0097466,6.72124756 15.0097466,6.5497076 L15.0097466,5.92592593 C15.0097466,5.75438596 14.8693957,5.61403509 14.6978558,5.61403509 Z M10.0194932,0 C4.50682261,0 0.0389863548,3.62962963 0.0389863548,8.10916179 C0.0389863548,9.96491228 0.814814815,11.6647173 2.10136452,13.0331384 C1.52046784,14.5692008 0.311890838,15.871345 0.292397661,15.8869396 C0.0350877193,16.1598441 -0.0350877193,16.5575049 0.113060429,16.9005848 C0.261208577,17.2436647 0.600389864,17.4658869 0.974658869,17.4658869 C3.37231969,17.4658869 5.26315789,16.4639376 6.39766082,15.6608187 C7.52436647,16.0155945 8.74074074,16.2183236 10.0194932,16.2183236 C15.5321637,16.2183236 20,12.588694 20,8.10916179 C20,3.62962963 15.5321637,0 10.0194932,0 Z M10.0194932,14.9707602 C8.91617934,14.9707602 7.8245614,14.8031189 6.77582846,14.4717349 L6.18323587,14.2846004 L5.67641326,14.6432749 C4.7797271,15.2787524 3.3957115,16.0194932 1.67641326,16.1871345 C2.14424951,15.5984405 2.83820663,14.6120858 3.26705653,13.4736842 L3.54385965,12.7446394 L3.00974659,12.1754386 C1.88304094,10.9824561 1.28654971,9.57504873 1.28654971,8.10916179 C1.28654971,4.32748538 5.20467836,1.24756335 10.0194932,1.24756335 C14.834308,1.24756335 18.7524366,4.32748538 18.7524366,8.10916179 C18.7524366,11.8908382 14.834308,14.9707602 10.0194932,14.9707602 Z" id="Shape"></path>
        </g>
    </g>
</svg>