<?xml version="1.0" encoding="UTF-8"?>
<svg viewBox="0 0 24 24" version="1.1" xmlns="http://www.w3.org/2000/svg" xmlns:xlink="http://www.w3.org/1999/xlink">
    <!-- Generator: Sketch 58 (84663) - https://sketch.com -->
    <title>Icon/Event/Line</title>
    <desc>Created with Sketch.</desc>
    <g id="Icon/Event/Line" stroke="none" stroke-width="1" fill="none" fill-rule="evenodd">
        <polygon id="24pt-Bounding-Box" opacity="0" fill-rule="nonzero" points="0 0 24 0 24 24 0 24"></polygon>
        <path d="M19.0714286,4.57142857 L17.1428571,4.57142857 L17.1428571,2.48214286 C17.1428571,2.21587946 16.9269777,2 16.6607143,2 L16.3392857,2 C16.0730223,2 15.8571429,2.21587946 15.8571429,2.48214286 L15.8571429,4.57142857 L8.14285714,4.57142857 L8.14285714,2.48214286 C8.14285714,2.21587946 7.92697768,2 7.66071429,2 L7.33928571,2 C7.07302232,2 6.85714286,2.21587946 6.85714286,2.48214286 L6.85714286,4.57142857 L4.92857143,4.57142857 C3.8634375,4.57142857 3,5.43486607 3,6.5 L3,20.6428571 C3,21.7079911 3.8634375,22.5714286 4.92857143,22.5714286 L19.0714286,22.5714286 C20.1365625,22.5714286 21,21.7079911 21,20.6428571 L21,6.5 C21,5.43486607 20.1365625,4.57142857 19.0714286,4.57142857 Z M4.92857143,5.85714286 L19.0714286,5.85714286 C19.4258839,5.85714286 19.7142857,6.14554464 19.7142857,6.5 L19.7142857,8.42857143 L4.28571429,8.42857143 L4.28571429,6.5 C4.28571429,6.14554464 4.57411607,5.85714286 4.92857143,5.85714286 Z M19.0714286,21.2857143 L4.92857143,21.2857143 C4.57411607,21.2857143 4.28571429,20.9973125 4.28571429,20.6428571 L4.28571429,9.71428571 L19.7142857,9.71428571 L19.7142857,20.6428571 C19.7142857,20.9973125 19.4258839,21.2857143 19.0714286,21.2857143 Z" id="Shape" fill="#284B52"></path>
    </g>
</svg>