<?xml version="1.0" encoding="UTF-8"?>
<svg viewBox="0 0 24 24" version="1.1" xmlns="http://www.w3.org/2000/svg" xmlns:xlink="http://www.w3.org/1999/xlink">
    <!-- Generator: Sketch 58 (84663) - https://sketch.com -->
    <title>Icon/Card/File</title>
    <desc>Created with Sketch.</desc>
    <g id="Icon/Card/File" stroke="none" stroke-width="1" fill="none" fill-rule="evenodd">
        <g id="file-light" transform="translate(4.500000, 2.000000)" fill="#284B52">
            <path d="M14.4210526,3.85575049 L11.1500975,0.584795322 C10.7992203,0.233918129 10.3235867,0.0350877193 9.82846004,0.0350877193 L1.87134503,0.0350877193 C0.838206628,0.0389863548 0,0.877192982 0,1.91033138 L0,18.128655 C0,19.1617934 0.838206628,20 1.87134503,20 L13.0994152,20 C14.1325536,20 14.9707602,19.1617934 14.9707602,18.128655 L14.9707602,5.18128655 C14.9707602,4.68615984 14.7719298,4.20662768 14.4210526,3.85575049 Z M13.539961,4.74074074 C13.6218324,4.82261209 13.6764133,4.92007797 13.7037037,5.02923977 L9.98050682,5.02923977 L9.98050682,1.30604288 C10.0896686,1.33333333 10.1871345,1.38791423 10.2690058,1.46978558 L13.539961,4.74074074 Z M13.0994152,18.7524366 L1.87134503,18.7524366 C1.52826511,18.7524366 1.24756335,18.4717349 1.24756335,18.128655 L1.24756335,1.91033138 C1.24756335,1.56725146 1.52826511,1.28654971 1.87134503,1.28654971 L8.73294347,1.28654971 L8.73294347,5.3411306 C8.73294347,5.85964912 9.15009747,6.27680312 9.66861598,6.27680312 L13.7231969,6.27680312 L13.7231969,18.128655 C13.7231969,18.4717349 13.4424951,18.7524366 13.0994152,18.7524366 Z" id="Shape"></path>
        </g>
    </g>
</svg>