<?xml version="1.0" encoding="UTF-8"?>
<svg viewBox="0 0 24 24" version="1.1" xmlns="http://www.w3.org/2000/svg" xmlns:xlink="http://www.w3.org/1999/xlink">
    <!-- Generator: Sketch 58 (84663) - https://sketch.com -->
    <title>Icon/File Download/Line</title>
    <desc>Created with Sketch.</desc>
    <g id="Icon/File-Download/Line" stroke="none" stroke-width="1" fill="none" fill-rule="evenodd">
        <polygon id="24pt-Bounding-Box" opacity="0" fill-rule="nonzero" points="0 0 24 0 24 24 0 24"></polygon>
        <g id="file-download-light" transform="translate(4.500000, 2.000000)" fill="#284B52">
            <path d="M14.4492188,3.82734375 L11.1726562,0.55078125 C10.8210937,0.19921875 10.3445312,0 9.84882813,0 L1.87460938,0 C0.83984375,0.00390625 0,0.84375 0,1.87851563 L0,18.1253906 C0,19.1601562 0.83984375,20 1.87460938,20 L13.1253906,20 C14.1601562,20 15,19.1601562 15,18.1253906 L15,5.15507813 C15,4.659375 14.8007812,4.17890625 14.4492188,3.82734375 Z M10.0011719,1.27304688 C10.1105469,1.30039063 10.2082031,1.35507813 10.2902344,1.43710938 L13.5667969,4.71367188 C13.6488281,4.79570313 13.7035156,4.89335938 13.7308594,5.00273438 L10.0011719,5.00273438 L10.0011719,1.27304688 L10.0011719,1.27304688 Z M13.7503906,18.1253906 C13.7503906,18.4691406 13.4691406,18.7503906 13.1253906,18.7503906 L1.87460938,18.7503906 C1.53085938,18.7503906 1.24960938,18.4691406 1.24960938,18.1253906 L1.24960938,1.87851563 C1.24960938,1.53476563 1.53085938,1.25 1.87460938,1.25 L8.75117188,1.25 L8.75117188,5.31523438 C8.75117188,5.83476563 9.16914063,6.25 9.68867188,6.25 L13.7503906,6.25 L13.7503906,18.1253906 Z M8.125,8.4375 C8.125,8.26484375 7.98515625,8.125 7.8125,8.125 L7.1875,8.125 C7.01484375,8.125 6.875,8.26484375 6.875,8.4375 L6.875,11.8757812 L4.81796875,11.8757812 C4.38828125,11.8757812 4.01367188,12.1261719 3.84140625,12.5289062 C3.665625,12.9398437 3.7484375,13.4125 4.05390625,13.7324219 L6.71484375,16.5363281 C6.9234375,16.7546875 7.20195312,16.8757812 7.49960937,16.8757812 C7.79726562,16.8757812 8.07578125,16.7550781 8.284375,16.5359375 L10.9453125,13.7332031 C11.2503906,13.4128906 11.3335938,12.9398438 11.1578125,12.5289063 C10.9855469,12.1261719 10.6109375,11.8757813 10.18125,11.8757813 L8.125,11.8757813 L8.125,8.4375 Z M9.7984375,13.1257813 L7.5,15.5476563 L5.2015625,13.1257813 L9.7984375,13.1257813 Z" id="Shape"></path>
        </g>
    </g>
</svg>