<?xml version="1.0" encoding="UTF-8"?>
<svg viewBox="0 0 24 24" version="1.1" xmlns="http://www.w3.org/2000/svg" xmlns:xlink="http://www.w3.org/1999/xlink">
    <!-- Generator: Sketch 58 (84663) - https://sketch.com -->
    <title>Icon/Folder/Line</title>
    <desc>Created with Sketch.</desc>
    <g id="Icon/Folder/Line" stroke="none" stroke-width="1" fill="none" fill-rule="evenodd">
        <polygon id="24pt-Bounding-Box" opacity="0" fill-rule="nonzero" points="0 0 24 0 24 24 0 24"></polygon>
        <path d="M20.3315959,10.5555552 L18.6666655,10.5555552 L18.6666655,8.88888861 C18.6666655,7.96840256 17.920485,7.22222206 17,7.22222206 L11.4444438,7.22222206 L9.2222217,5 L3.66666655,5 C2.7461805,5 2,5.7461805 2,6.66666655 L2,16.6666658 C2,17.5871519 2.7461805,18.3333324 3.66666655,18.3333324 L17.0367003,18.3333324 C18.0112836,18.3333324 18.9163877,17.8217699 19.4186099,16.9847214 L21.7607277,13.0797216 C22.4249985,11.9726384 21.62795,10.5555552 20.3315959,10.5555552 Z M3.66666655,6.11111103 L8.76197868,6.11111103 L10.9842007,8.33333309 L16.9999989,8.33333309 C17.3068392,8.33333309 17.5555544,8.58204835 17.5555544,8.88888861 L17.5555544,10.5555552 L7.9436454,10.5555552 C6.96906214,10.5555552 6.06395804,11.0671176 5.56173585,11.9041662 L3.11111103,15.9885409 L3.11111103,6.66666655 C3.11111103,6.35982629 3.35982629,6.11111103 3.66666655,6.11111103 Z M20.8088528,12.508055 L18.4658321,16.4130547 C18.1646442,16.9150693 17.6221342,17.2222213 17.0367003,17.2222213 L3.55635405,17.2222213 L6.40416635,12.4758328 C6.70537565,11.9738229 7.24789209,11.6666662 7.83333291,11.6666662 L20.332464,11.6666662 C20.7643042,11.6666662 21.0310403,12.1377773 20.8088528,12.508055 L20.8088528,12.508055 Z" id="Shape" fill="#284B52"></path>
    </g>
</svg>