<?xml version="1.0" encoding="UTF-8"?>
<svg viewBox="0 0 24 24" version="1.1" xmlns="http://www.w3.org/2000/svg" xmlns:xlink="http://www.w3.org/1999/xlink">
    <!-- Generator: Sketch 58 (84663) - https://sketch.com -->
    <title>Icon/Card/General</title>
    <desc>Created with Sketch.</desc>
    <g id="Icon/Card/General" stroke="none" stroke-width="1" fill="none" fill-rule="evenodd">
        <path d="M3.3,11.93 C3.3,14.634 5.289,16.74 8.019,16.74 C10.749,16.74 12.725,14.634 12.725,11.93 C12.725,9.291 10.749,7.25 8.019,7.25 C5.289,7.25 3.3,9.291 3.3,11.93 Z M4.626,11.93 C4.626,9.941 6.069,8.433 8.019,8.433 C9.969,8.433 11.399,9.941 11.399,11.93 C11.399,13.984 9.969,15.557 8.019,15.557 C6.069,15.557 4.626,13.984 4.626,11.93 Z M14.48,16.155 C14.48,16.441 14.623,16.584 14.909,16.584 L15.325,16.584 C15.611,16.584 15.754,16.441 15.754,16.155 L15.754,13.191 L17.834,13.191 C19.511,13.191 20.707,12.021 20.707,10.279 C20.707,8.537 19.511,7.406 17.834,7.406 L14.909,7.406 C14.623,7.406 14.48,7.549 14.48,7.835 L14.48,16.155 Z M15.754,12.073 L15.754,8.524 L17.639,8.524 C18.731,8.524 19.407,9.174 19.407,10.279 C19.407,11.384 18.731,12.073 17.626,12.073 L15.754,12.073 Z" id="OP" fill="#284B52" fill-rule="nonzero"></path>
    </g>
</svg>