<?xml version="1.0" encoding="UTF-8"?>
<svg viewBox="0 0 24 24" version="1.1" xmlns="http://www.w3.org/2000/svg" xmlns:xlink="http://www.w3.org/1999/xlink">
    <!-- Generator: Sketch 58 (84663) - https://sketch.com -->
    <title>Icon/Card/Image</title>
    <desc>Created with Sketch.</desc>
    <g id="Icon/Card/Image" stroke="none" stroke-width="1" fill="none" fill-rule="evenodd">
        <g id="image-light" transform="translate(2.000000, 4.500000)" fill="#284B52">
            <path d="M18.125,0 L1.875,0 C0.839453125,0 0,0.839453125 0,1.875 L0,13.125 C0,14.1605469 0.839453125,15 1.875,15 L18.125,15 C19.1605469,15 20,14.1605469 20,13.125 L20,1.875 C20,0.839453125 19.1605469,0 18.125,0 Z M18.75,13.125 C18.75,13.4696094 18.4696094,13.75 18.125,13.75 L1.875,13.75 C1.53039062,13.75 1.25,13.4696094 1.25,13.125 L1.25,1.875 C1.25,1.53039062 1.53039062,1.25 1.875,1.25 L18.125,1.25 C18.4696094,1.25 18.75,1.53039062 18.75,1.875 L18.75,13.125 Z M4.375,6.5625 C5.583125,6.5625 6.5625,5.583125 6.5625,4.375 C6.5625,3.166875 5.583125,2.1875 4.375,2.1875 C3.166875,2.1875 2.1875,3.166875 2.1875,4.375 C2.1875,5.583125 3.166875,6.5625 4.375,6.5625 Z M4.375,3.4375 C4.89195312,3.4375 5.3125,3.85804687 5.3125,4.375 C5.3125,4.89195313 4.89195312,5.3125 4.375,5.3125 C3.85804688,5.3125 3.4375,4.89195313 3.4375,4.375 C3.4375,3.85804687 3.85804688,3.4375 4.375,3.4375 Z M12.4620703,4.33707031 L8.75,8.04917969 L7.53792969,6.83710938 C7.17179688,6.47097656 6.57820313,6.47097656 6.21210937,6.83710938 L2.77460937,10.2746094 C2.59878407,10.4504109 2.5,10.6888623 2.5,10.9375 L2.5,12.03125 C2.5,12.2901172 2.70988281,12.5 2.96875,12.5 L17.03125,12.5 C17.2901172,12.5 17.5,12.2901172 17.5,12.03125 L17.5,8.4375 C17.5,8.18886719 17.4012109,7.95039062 17.2254297,7.77457031 L13.7879297,4.33707031 C13.4217969,3.97097656 12.8282031,3.97097656 12.4620703,4.33707031 Z M16.25,11.25 L3.75,11.25 L3.75,11.0669531 L6.875,7.94195313 L8.75,9.81695313 L13.125,5.44195313 L16.25,8.56695313 L16.25,11.25 Z" id="Shape"></path>
        </g>
    </g>
</svg>