<?xml version="1.0" encoding="UTF-8"?>
<svg viewBox="0 0 24 24" version="1.1" xmlns="http://www.w3.org/2000/svg" xmlns:xlink="http://www.w3.org/1999/xlink">
    <!-- Generator: Sketch 58 (84663) - https://sketch.com -->
    <title>Icon/Rocket/Line</title>
    <desc>Created with Sketch.</desc>
    <g id="Icon/Rocket/Line" stroke="none" stroke-width="1" fill="none" fill-rule="evenodd">
        <polygon id="24pt-Bounding-Box" opacity="0" fill-rule="nonzero" points="0 0 24 0 24 24 0 24"></polygon>
        <path d="M21.7294805,2.75553229 C21.6774292,2.51381809 21.4884256,2.32512038 21.2466274,2.2734605 C19.9726922,2 18.9757333,2 17.9822904,2 C13.9299965,2 11.4907289,4.15252477 9.66518476,7.00042051 L5.70391413,7.00042051 C4.99491663,7.00102038 4.34688329,7.40144967 4.02916392,8.03527316 L2.09853281,11.8949727 C1.95356891,12.1856828 1.96941643,12.5307162 2.14041864,12.8069138 C2.31142084,13.0831114 2.61320759,13.2511113 2.93805654,13.2509461 L6.55554825,13.2509461 L6.14184159,14.0877353 C5.90546538,14.5667038 6.00225732,15.143206 6.38209616,15.518715 L8.48266344,17.617329 C8.71656936,17.8524253 9.03430601,17.9849444 9.36594084,17.9857193 C9.55570642,17.9855107 9.74286601,17.9415282 9.91286183,17.8571929 L10.748479,17.4438769 L10.748479,21.0641032 C10.7501941,21.5812016 11.1689594,21.9999669 11.6860578,22.001682 C11.8302966,22.001682 11.972512,21.9677417 12.1013271,21.9028456 L15.9571201,19.9733865 C16.5920499,19.6562182 16.9929558,19.0072045 16.9923634,18.2974643 L16.9923634,14.3334591 C19.8355713,12.5059616 21.9994251,10.0573182 21.9994251,6.02377588 C22.0025504,5.02642638 22.0025504,4.03142083 21.7294805,2.75553229 Z M6.9981636,12.000841 L3.44317714,12.000841 L5.14605472,8.59430455 C5.25284426,8.38418122 5.46821317,8.25146088 5.70391413,8.25052564 L9.03153772,8.25052564 C8.48696067,9.34710223 7.79237101,10.7507359 7.17356897,12.000841 L6.9981636,12.000841 Z M15.7434303,18.2974643 C15.7428605,18.5339167 15.6089116,18.7498072 15.3973074,18.8553237 L11.9985841,20.556248 L11.9985841,16.8246842 C13.2486892,16.2062728 14.6480257,15.5124645 15.7434303,14.9674967 L15.7434303,18.2974643 Z M16.3153534,13.2861054 C14.7722549,14.0588266 11.0074851,15.9210926 9.36515952,16.7332702 L7.26263896,14.6412974 C8.0779419,12.9915493 9.93981723,9.22717027 10.7094132,7.68055583 C12.6709063,4.61740761 14.9160169,3.25010513 17.9822904,3.25010513 C18.8237674,3.25010513 19.6230534,3.25010513 20.5852437,3.41769735 C20.7547892,4.38926342 20.7516639,5.1838615 20.7485387,6.02338522 C20.7493796,9.07364173 19.3820175,11.3156271 16.3153534,13.2861054 Z M16.3739521,5.12526282 C14.9931241,5.12526282 13.8737418,6.24464508 13.8737418,7.62547307 C13.8737418,9.00630107 14.9931241,10.1256833 16.3739521,10.1256833 C17.75478,10.1256833 18.8741623,9.00630107 18.8741623,7.62547307 C18.8726552,6.24526983 17.7541553,5.12676994 16.3739521,5.12526282 L16.3739521,5.12526282 Z M16.3739521,8.8755782 C15.6835381,8.8755782 15.1238469,8.31588707 15.1238469,7.62547307 C15.1238469,6.93505908 15.6835381,6.37536795 16.3739521,6.37536795 C17.064366,6.37536795 17.6240572,6.93505908 17.6240572,7.62547307 C17.6240572,8.31588707 17.064366,8.8755782 16.3739521,8.8755782 Z" id="Shape" fill="#284B52"></path>
    </g>
</svg>