<?xml version="1.0" encoding="UTF-8"?>
<svg viewBox="0 0 24 24" version="1.1" xmlns="http://www.w3.org/2000/svg" xmlns:xlink="http://www.w3.org/1999/xlink">
    <!-- Generator: Sketch 58 (84663) - https://sketch.com -->
    <title>Icon/Card/Meeting</title>
    <desc>Created with Sketch.</desc>
    <g id="Icon/Card/Meeting" stroke="none" stroke-width="1" fill="none" fill-rule="evenodd">
        <g id="handshake-alt-light" transform="translate(2.000000, 6.000000)" fill="#284B52">
            <path d="M7.45,3.55 L10.046875,1.16875 C10.140625,1.084375 10.259375,1.0375 10.384375,1.0375 L13.540625,1.0375 C13.675,1.0375 13.8,1.090625 13.896875,1.1875 L15.79375,3.034375 L19.75,3.034375 C19.8875,3.034375 20,2.921875 20,2.784375 L20,2.284375 C20,2.146875 19.8875,2.034375 19.75,2.034375 L16.203125,2.034375 L14.603125,0.475 C14.31875,0.190625 13.94375,0.034375 13.54375,0.034375 L10.3875,0.034375 C10.0625,0.034375 9.759375,0.15625 9.503125,0.346875 C9.240625,0.14375 8.91875,0.025 8.5875,0.025 L6.415625,0.025 C6.01875,0.025 5.6375,0.184375 5.353125,0.465625 L3.79375,2.03125 L0.25,2.03125 C0.1125,2.03125 0,2.14375 0,2.28125 L0,2.78125 C0,2.91875 0.1125,3.03125 0.25,3.03125 L4.20625,3.03125 L6.059375,1.178125 C6.153125,1.084375 6.28125,1.03125 6.4125,1.03125 L8.584375,1.03125 C8.6125,1.1 8.59375,1.053125 8.61875,1.121875 L6.775,2.8125 C5.89375,3.621875 5.85,4.975 6.64375,5.840625 C7.090625,6.328125 8.475,7.06875 9.671875,5.971875 L10.384375,5.31875 L14.309375,8.503125 C14.521875,8.675 14.55625,8.99375 14.38125,9.20625 L14.084375,9.571875 C13.915625,9.778125 13.603125,9.825 13.38125,9.64375 L12.825,9.19375 L11.528125,10.7875 C11.29375,11.078125 10.871875,11.10625 10.609375,10.89375 L9.653125,10.078125 L9.328125,10.478125 C8.80625,11.11875 7.859375,11.21875 7.246875,10.725 L4.4375,8.034375 L0.25,8.034375 C0.1125,8.034375 0,8.146875 0,8.284375 L0,8.784375 C0,8.921875 0.1125,9.034375 0.25,9.034375 L4.0375,9.034375 L6.584375,11.471875 C7.515625,12.225 8.828125,12.203125 9.740625,11.465625 L9.965625,11.659375 C10.265625,11.903125 10.63125,12.03125 11.0125,12.03125 C11.5125,12.03125 11.984375,11.8125 12.30625,11.41875 L12.990625,10.578125 C13.503125,10.85625 14.33125,10.859375 14.865625,10.203125 L15.1625,9.8375 C15.35625,9.6 15.4625,9.31875 15.490625,9.034375 L19.75,9.034375 C19.8875,9.034375 20,8.921875 20,8.784375 L20,8.284375 C20,8.146875 19.8875,8.034375 19.75,8.034375 L15.2125,8.034375 C15.134375,7.925 15.046875,7.81875 14.9375,7.728125 L11.128125,4.634375 L12.015625,3.81875 C12.21875,3.63125 12.234375,3.315625 12.046875,3.1125 C11.859375,2.909375 11.54375,2.896875 11.340625,3.08125 L8.99375,5.23125 C8.54375,5.640625 7.7875,5.60625 7.378125,5.1625 C6.95625,4.703125 6.984375,3.978125 7.45,3.55 Z" id="Path"></path>
        </g>
    </g>
</svg>