<?xml version="1.0" encoding="UTF-8"?>
<svg viewBox="0 0 24 24" version="1.1" xmlns="http://www.w3.org/2000/svg" xmlns:xlink="http://www.w3.org/1999/xlink">
    <!-- Generator: Sketch 58 (84663) - https://sketch.com -->
    <title>Icon/Menu</title>
    <desc>Created with Sketch.</desc>
    <g id="Icon/Menu" stroke="none" stroke-width="1" fill="none" fill-rule="evenodd">
        <polygon id="24pt-Bounding-Box" opacity="0" fill-rule="nonzero" points="0 0 24 0 24 24 0 24"></polygon>
        <g id="bars-light" transform="translate(1.500000, 3.250000)" fill="#284B52">
            <path d="M20.2321429,2.40714286 L0.767857143,2.40714286 C0.619923728,2.40714286 0.5,2.28721913 0.5,2.13928571 L0.5,1.06785714 C0.5,0.919923728 0.619923728,0.8 0.767857143,0.8 L20.2321429,0.8 C20.3800763,0.8 20.5,0.919923728 20.5,1.06785714 L20.5,2.13928571 C20.5,2.28721913 20.3800763,2.40714286 20.2321429,2.40714286 Z M20.2321429,9.55 L0.767857143,9.55 C0.619923728,9.55 0.5,9.43007627 0.5,9.28214286 L0.5,8.21071429 C0.5,8.06278087 0.619923728,7.94285714 0.767857143,7.94285714 L20.2321429,7.94285714 C20.3800763,7.94285714 20.5,8.06278087 20.5,8.21071429 L20.5,9.28214286 C20.5,9.43007627 20.3800763,9.55 20.2321429,9.55 Z M20.2321429,16.6928571 L0.767857143,16.6928571 C0.619923728,16.6928571 0.5,16.5729334 0.5,16.425 L0.5,15.3535714 C0.5,15.205638 0.619923728,15.0857143 0.767857143,15.0857143 L20.2321429,15.0857143 C20.3800763,15.0857143 20.5,15.205638 20.5,15.3535714 L20.5,16.425 C20.5,16.5729334 20.3800763,16.6928571 20.2321429,16.6928571 Z" id="Shape"></path>
        </g>
    </g>
</svg>