<?xml version="1.0" encoding="UTF-8"?>
<svg viewBox="0 0 24 24" version="1.1" xmlns="http://www.w3.org/2000/svg" xmlns:xlink="http://www.w3.org/1999/xlink">
    <!-- Generator: Sketch 58 (84663) - https://sketch.com -->
    <title>Icon/Menu</title>
    <desc>Created with Sketch.</desc>
    <g id="Icon/Menu" stroke="none" stroke-width="1" fill="none" fill-rule="evenodd">
        <polygon id="24pt-Bounding-Box" opacity="0" fill-rule="nonzero" points="0 0 24 0 24 24 0 24"></polygon>
        <g id="bars-light" transform="translate(3.500000, 5.250000)" fill="#284B52">
            <path d="M16.7723214,1.36607143 L0.227678571,1.36607143 C0.101935169,1.36607143 0,1.26413626 0,1.13839286 L0,0.227678571 C0,0.101935169 0.101935169,0 0.227678571,0 L16.7723214,0 C16.8980648,0 17,0.101935169 17,0.227678571 L17,1.13839286 C17,1.26413626 16.8980648,1.36607143 16.7723214,1.36607143 Z M16.7723214,7.4375 L0.227678571,7.4375 C0.101935169,7.4375 0,7.33556483 0,7.20982143 L0,6.29910714 C0,6.17336374 0.101935169,6.07142857 0.227678571,6.07142857 L16.7723214,6.07142857 C16.8980648,6.07142857 17,6.17336374 17,6.29910714 L17,7.20982143 C17,7.33556483 16.8980648,7.4375 16.7723214,7.4375 Z M16.7723214,13.5089286 L0.227678571,13.5089286 C0.101935169,13.5089286 0,13.4069934 0,13.28125 L0,12.3705357 C0,12.2447923 0.101935169,12.1428571 0.227678571,12.1428571 L16.7723214,12.1428571 C16.8980648,12.1428571 17,12.2447923 17,12.3705357 L17,13.28125 C17,13.4069934 16.8980648,13.5089286 16.7723214,13.5089286 Z" id="Shape"></path>
        </g>
    </g>
</svg>