<?xml version="1.0" encoding="UTF-8"?>
<svg viewBox="0 0 24 24" version="1.1" xmlns="http://www.w3.org/2000/svg" xmlns:xlink="http://www.w3.org/1999/xlink">
    <!-- Generator: Sketch 58 (84663) - https://sketch.com -->
    <title>Icon/More Vertical</title>
    <desc>Created with Sketch.</desc>
    <g id="Icon/More-Vertical" stroke="none" stroke-width="1" fill="none" fill-rule="evenodd">
        <polygon id="24pt-Bounding-Box" opacity="0" fill-rule="nonzero" points="0 0 24 0 24 24 0 24"></polygon>
        <path d="M12.0052632,9.89473684 C13.1697368,9.89473684 14.1105263,10.8355263 14.1105263,12 C14.1105263,13.1644737 13.1697368,14.1052632 12.0052632,14.1052632 C10.8407895,14.1052632 9.9,13.1644737 9.9,12 C9.9,10.8355263 10.8407895,9.89473684 12.0052632,9.89473684 Z M9.9,4.10526316 C9.9,5.26973684 10.8407895,6.21052632 12.0052632,6.21052632 C13.1697368,6.21052632 14.1105263,5.26973684 14.1105263,4.10526316 C14.1105263,2.94078947 13.1697368,2 12.0052632,2 C10.8407895,2 9.9,2.94078947 9.9,4.10526316 Z M9.9,19.8947368 C9.9,21.0592105 10.8407895,22 12.0052632,22 C13.1697368,22 14.1105263,21.0592105 14.1105263,19.8947368 C14.1105263,18.7302632 13.1697368,17.7894737 12.0052632,17.7894737 C10.8407895,17.7894737 9.9,18.7302632 9.9,19.8947368 Z" id="Shape" fill="#284B52"></path>
    </g>
</svg>