<?xml version="1.0" encoding="UTF-8"?>
<svg viewBox="0 0 4 18" version="1.1" xmlns="http://www.w3.org/2000/svg" xmlns:xlink="http://www.w3.org/1999/xlink">
    <!-- Generator: Sketch 58 (84663) - https://sketch.com -->
    <title>Shape</title>
    <desc>Created with Sketch.</desc>
    <g id="Symbols" stroke="none" stroke-width="1" fill="none" fill-rule="evenodd">
        <g id="Icon/More-Vertical" transform="translate(-10.000000, -3.000000)" fill="#284B52">
            <path d="M11.8947368,10.1052632 C12.9427632,10.1052632 13.7894737,10.9519737 13.7894737,12 C13.7894737,13.0480263 12.9427632,13.8947368 11.8947368,13.8947368 C10.8467105,13.8947368 10,13.0480263 10,12 C10,10.9519737 10.8467105,10.1052632 11.8947368,10.1052632 Z M10,4.89473684 C10,5.94276316 10.8467105,6.78947368 11.8947368,6.78947368 C12.9427632,6.78947368 13.7894737,5.94276316 13.7894737,4.89473684 C13.7894737,3.84671053 12.9427632,3 11.8947368,3 C10.8467105,3 10,3.84671053 10,4.89473684 Z M10,19.1052632 C10,20.1532895 10.8467105,21 11.8947368,21 C12.9427632,21 13.7894737,20.1532895 13.7894737,19.1052632 C13.7894737,18.0572368 12.9427632,17.2105263 11.8947368,17.2105263 C10.8467105,17.2105263 10,18.0572368 10,19.1052632 Z" id="Shape"></path>
        </g>
    </g>
</svg>