<?xml version="1.0" encoding="UTF-8"?>
<svg viewBox="0 0 18 22" version="1.1" xmlns="http://www.w3.org/2000/svg" xmlns:xlink="http://www.w3.org/1999/xlink">
    <!-- Generator: Sketch 58 (84663) - https://sketch.com -->
    <title>stack</title>
    <desc>Created with Sketch.</desc>
    <g id="Symbols" stroke="none" stroke-width="1" fill="none" fill-rule="evenodd">
        <g id="Icon/Queue/Line" transform="translate(-2.000000, -1.000000)" fill-rule="nonzero">
            <g id="Assets/Icons/Stack/Navy" transform="translate(2.500000, 1.000000)">
                <g id="stack">
                    <path d="M13.6753137,16.2151735 L13.6753137,1.68954207 C13.6753137,0.764232084 12.936842,0.0135088837 12.0266326,0.0135088837 L2.13454629,0.0135088837 C1.22433701,0.0135088837 0.485865235,0.764232084 0.485865235,1.68954207 L0.485865235,16.2151735 C0.485865235,17.1404835 1.22433701,17.8912068 2.13454629,17.8912068 L12.0266326,17.8912068 C12.936842,17.8912068 13.6753137,17.1404835 13.6753137,16.2151735 Z M2.10569437,16.7161468 C1.80419182,16.7161468 1.55750792,16.4652477 1.55750792,16.1585932 L1.55750792,1.66218957 C1.55750792,1.3555351 1.80419182,1.10463598 2.10569437,1.10463598 L11.9730505,1.10463598 C12.274553,1.10463598 12.5212369,1.3555351 12.5212369,1.66218957 L12.5212369,16.1585932 C12.5212369,16.4652477 12.274553,16.7161468 11.9730505,16.7161468 L2.10569437,16.7161468 Z" id="Fill-1" fill="#284B52"></path>
                    <rect id="Rectangle" fill="#FFFFFF" x="3.23586524" y="2.81350888" width="11.9166667" height="15.8666667"></rect>
                    <path d="M16.9253137,19.5485068 L16.9253137,5.02287541 C16.9253137,4.09756542 16.186842,3.34684222 15.2766326,3.34684222 L5.38454629,3.34684222 C4.47433701,3.34684222 3.73586524,4.09756542 3.73586524,5.02287541 L3.73586524,19.5485068 C3.73586524,20.4738169 4.47433701,21.2245401 5.38454629,21.2245401 L15.2766326,21.2245401 C16.186842,21.2245401 16.9253137,20.4738169 16.9253137,19.5485068 Z M5.35569437,20.0494801 C5.05419182,20.0494801 4.80750792,19.798581 4.80750792,19.4919265 L4.80750792,4.9955229 C4.80750792,4.68886844 5.05419182,4.43796932 5.35569437,4.43796932 L15.2230505,4.43796932 C15.524553,4.43796932 15.7712369,4.68886844 15.7712369,4.9955229 L15.7712369,19.4919265 C15.7712369,19.798581 15.524553,20.0494801 15.2230505,20.0494801 L5.35569437,20.0494801 Z" id="Fill-1" fill="#284B52"></path>
                </g>
            </g>
        </g>
    </g>
</svg>