<?xml version="1.0" encoding="UTF-8"?>
<svg viewBox="0 0 24 24" version="1.1" xmlns="http://www.w3.org/2000/svg" xmlns:xlink="http://www.w3.org/1999/xlink">
    <!-- Generator: Sketch 58 (84663) - https://sketch.com -->
    <title>Icon/Queue/Line</title>
    <desc>Created with Sketch.</desc>
    <g id="Icon/Queue/Line" stroke="none" stroke-width="1" fill="none" fill-rule="evenodd">
        <g id="Assets/Icons/Stack/Navy" transform="translate(2.500000, 1.000000)" fill="#284B52">
            <path d="M0.5,15.3394107 L0.5,16.5 C0.5,17.3284271 1.17157288,18 2,18 L12,18 C12.8284271,18 13.5,17.3284271 13.5,16.5 L13.5,1.5 C13.5,0.671572875 12.8284271,7.14805992e-12 12,7.14805992e-12 L11.1640063,7.14805992e-12 L11.1640063,1 L12,1 C12.2761424,1 12.5,1.22385763 12.5,1.5 L12.5,16.5 C12.5,16.7761424 12.2761424,17 12,17 L2,17 C1.72385763,17 1.5,16.7761424 1.5,16.5 L1.5,15.3394107 L0.5,15.3394107 Z" id="Rectangle" transform="translate(7.000000, 9.000000) scale(-1, -1) translate(-7.000000, -9.000000) "></path>
            <path d="M16.9253137,19.5485068 L16.9253137,5.02287541 C16.9253137,4.09756542 16.186842,3.34684222 15.2766326,3.34684222 L5.38454629,3.34684222 C4.47433701,3.34684222 3.73586524,4.09756542 3.73586524,5.02287541 L3.73586524,19.5485068 C3.73586524,20.4738169 4.47433701,21.2245401 5.38454629,21.2245401 L15.2766326,21.2245401 C16.186842,21.2245401 16.9253137,20.4738169 16.9253137,19.5485068 Z M5.35569437,20.0494801 C5.05419182,20.0494801 4.80750792,19.798581 4.80750792,19.4919265 L4.80750792,4.9955229 C4.80750792,4.68886844 5.05419182,4.43796932 5.35569437,4.43796932 L15.2230505,4.43796932 C15.524553,4.43796932 15.7712369,4.68886844 15.7712369,4.9955229 L15.7712369,19.4919265 C15.7712369,19.798581 15.524553,20.0494801 15.2230505,20.0494801 L5.35569437,20.0494801 Z" id="Fill-1"></path>
        </g>
    </g>
</svg>