<?xml version="1.0" encoding="UTF-8"?>
<svg viewBox="0 0 24 24" version="1.1" xmlns="http://www.w3.org/2000/svg" xmlns:xlink="http://www.w3.org/1999/xlink">
    <!-- Generator: Sketch 58 (84663) - https://sketch.com -->
    <title>Icon/Card/Quiz</title>
    <desc>Created with Sketch.</desc>
    <g id="Icon/Card/Quiz" stroke="none" stroke-width="1" fill="none" fill-rule="evenodd">
        <g id="ballot-check-light" transform="translate(3.000000, 2.000000)" fill="#284B52">
            <path d="M4.375,16.875 L5.625,16.875 C6.31640625,16.875 6.875,16.3125 6.875,15.625 L6.875,14.375 C6.875,13.6875 6.31640625,13.125 5.625,13.125 L4.375,13.125 C3.68359375,13.125 3.125,13.6875 3.125,14.375 L3.125,15.625 C3.125,16.3125 3.68359375,16.875 4.375,16.875 Z M4.375,14.375 L5.625,14.375 L5.625,15.625 L4.375,15.625 L4.375,14.375 Z M4.375,6.875 L5.625,6.875 C6.31640625,6.875 6.875,6.3125 6.875,5.625 L6.875,4.375 C6.875,3.6875 6.31640625,3.125 5.625,3.125 L4.375,3.125 C3.68359375,3.125 3.125,3.6875 3.125,4.375 L3.125,5.625 C3.125,6.3125 3.68359375,6.875 4.375,6.875 Z M4.375,4.375 L5.625,4.375 L5.625,5.625 L4.375,5.625 L4.375,4.375 Z M16.25,0 L1.25,0 C0.55859375,0 0,0.5625 0,1.25 L0,18.75 C0,19.4375 0.55859375,20 1.25,20 L16.25,20 C16.9414062,20 17.5,19.4375 17.5,18.75 L17.5,1.25 C17.5,0.5625 16.9414062,0 16.25,0 Z M16.25,18.75 L1.25,18.75 L1.25,1.25 L16.25,1.25 L16.25,18.75 Z M8.4375,5.625 L13.4375,5.625 C13.609375,5.625 13.75,5.484375 13.75,5.3125 L13.75,4.6875 C13.75,4.515625 13.609375,4.375 13.4375,4.375 L8.4375,4.375 C8.265625,4.375 8.125,4.515625 8.125,4.6875 L8.125,5.3125 C8.125,5.484375 8.265625,5.625 8.4375,5.625 Z M8.4375,10.625 L13.4375,10.625 C13.609375,10.625 13.75,10.484375 13.75,10.3125 L13.75,9.6875 C13.75,9.515625 13.609375,9.375 13.4375,9.375 L8.4375,9.375 C8.265625,9.375 8.125,9.515625 8.125,9.6875 L8.125,10.3125 C8.125,10.484375 8.265625,10.625 8.4375,10.625 Z M8.4375,15.625 L13.4375,15.625 C13.609375,15.625 13.75,15.484375 13.75,15.3125 L13.75,14.6875 C13.75,14.515625 13.609375,14.375 13.4375,14.375 L8.4375,14.375 C8.265625,14.375 8.125,14.515625 8.125,14.6875 L8.125,15.3125 C8.125,15.484375 8.265625,15.625 8.4375,15.625 Z M4.6328125,11.1875 C4.71484375,11.2695313 4.84765625,11.2695313 4.9296875,11.1875 L7.4375,8.703125 C7.51953125,8.62109375 7.51953125,8.48828125 7.4375,8.40625 L6.9453125,7.91015625 C6.86328125,7.828125 6.73046875,7.828125 6.6484375,7.91015625 L4.7890625,9.75390625 L3.984375,8.9375 C3.90234375,8.85546875 3.76953125,8.85546875 3.6875,8.9375 L3.19140625,9.4296875 C3.109375,9.51171875 3.109375,9.64453125 3.19140625,9.7265625 L4.6328125,11.1875 Z" id="Shape"></path>
        </g>
    </g>
</svg>