<?xml version="1.0" encoding="UTF-8"?>
<svg viewBox="0 0 24 24" version="1.1" xmlns="http://www.w3.org/2000/svg" xmlns:xlink="http://www.w3.org/1999/xlink">
    <!-- Generator: Sketch 58 (84663) - https://sketch.com -->
    <title>Icon/Card/Rating</title>
    <desc>Created with Sketch.</desc>
    <g id="Icon/Card/Rating" stroke="none" stroke-width="1" fill="none" fill-rule="evenodd">
        <g id="star-regular" transform="translate(2.000000, 5.500000)" fill="#284B52">
            <path d="M12.3233209,4.18376866 L8.77985075,3.66716418 L7.19608209,0.455970149 C6.91231343,-0.11641791 6.09011194,-0.12369403 5.80391791,0.455970149 L4.22014925,3.66716418 L0.676679104,4.18376866 C0.0412313433,4.27593284 -0.213432836,5.05932836 0.24738806,5.50802239 L2.81100746,8.00615672 L2.20466418,11.5350746 C2.09552239,12.1729478 2.76735075,12.6507463 3.33003731,12.3524254 L6.5,10.686194 L9.66996269,12.3524254 C10.2326493,12.6483209 10.9044776,12.1729478 10.7953358,11.5350746 L10.1889925,8.00615672 L12.7526119,5.50802239 C13.2134328,5.05932836 12.9587687,4.27593284 12.3233209,4.18376866 L12.3233209,4.18376866 Z M8.93992537,7.59869403 L9.51473881,10.9554104 L6.5,9.37164179 L3.48526119,10.9554104 L4.06007463,7.59869403 L1.62014925,5.22182836 L4.99141791,4.73190299 L6.5,1.67593284 L8.00858209,4.73190299 L11.3798507,5.22182836 L8.93992537,7.59869403 Z" id="Shape"></path>
        </g>
        <g id="star-half-regular" transform="translate(16.000000, 5.500000)" fill="#284B52">
            <path d="M6.5,9.74522864 C6.5,9.49422675 5.49508706,9.8895361 3.48526119,10.9311567 L4.06007463,7.5744403 L1.62014925,5.19757463 L4.99141791,4.70764925 C5.9971393,2.63150981 6.5,1.48252794 6.5,1.26070365 C6.5,0.927967219 6.5,0.919114067 6.5,0.431716418 C6.5,-0.0556812309 5.94701493,0.143097015 5.80391791,0.431716418 L4.22014925,3.64291045 L0.676679104,4.15708955 C0.0412313433,4.24925373 -0.213432836,5.03264925 0.24738806,5.48134328 L2.81100746,7.97947761 L2.20466418,11.5083955 C2.09552239,12.1414179 2.7625,12.6240672 3.33003731,12.3257463 C5.44334577,11.1142794 6.5,10.4050134 6.5,10.1979483 C6.5,9.88735069 6.5,9.99830976 6.5,9.74522864 Z" id="Path"></path>
        </g>
    </g>
</svg>