<?xml version="1.0" encoding="UTF-8"?>
<svg viewBox="0 0 24 24" version="1.1" xmlns="http://www.w3.org/2000/svg" xmlns:xlink="http://www.w3.org/1999/xlink">
    <!-- Generator: Sketch 58 (84663) - https://sketch.com -->
    <title>Icon/Card/Stack</title>
    <desc>Created with Sketch.</desc>
    <g id="Icon/Card/Stack" stroke="none" stroke-width="1" fill="none" fill-rule="evenodd">
        <g id="stack" transform="translate(2.000000, 2.000000)">
            <rect id="Rectangle" stroke="#284B52" stroke-width="1.2" x="5.6" y="0.6" width="12.8" height="17.8" rx="2"></rect>
            <path d="M5.17422213,18.810922 C4.50664881,18.6083507 4.09318518,18.228039 3.88260359,17.6361806 L3.81571587,17.4253037 L3.68968477,16.9590283 C2.95244933,14.0725944 1.04201263,4.43333412 1.04201263,3.06879719 C1.04201263,2.25038125 2.02004112,1.61996347 4.21927946,1.28538842 C4.54688095,1.23554967 4.77205215,0.929573901 4.7222134,0.601972406 C4.67237465,0.274370911 4.36639888,0.0491997159 4.03879738,0.0990384644 C1.32200134,0.512350726 -0.157987366,1.46632211 -0.157987366,3.06879719 C-0.157987366,4.72939236 2.21072589,16.517045 2.75203225,18.0384348 C3.09302765,18.9968328 3.80135208,19.6483631 4.82577787,19.9592192 C5.1428714,20.0554395 5.47792841,19.8763863 5.57414863,19.5592927 C5.67036886,19.2421992 5.49131566,18.9071422 5.17422213,18.810922 Z" id="Line" fill="#284B52" fill-rule="nonzero"></path>
        </g>
    </g>
</svg>