<?xml version="1.0" encoding="UTF-8"?>
<svg viewBox="0 0 24 24" version="1.1" xmlns="http://www.w3.org/2000/svg" xmlns:xlink="http://www.w3.org/1999/xlink">
    <!-- Generator: Sketch 58 (84663) - https://sketch.com -->
    <title>Icon/Card/Training</title>
    <desc>Created with Sketch.</desc>
    <g id="Icon/Card/Training" stroke="none" stroke-width="1" fill="none" fill-rule="evenodd">
        <path d="M4.56254539,22.5221109 C3.53391237,22.5221109 2.7,21.6881985 2.7,20.6595655 C2.7,18.4329771 3.49158179,16.7820846 5.05358009,15.7492185 C6.11607758,15.046531 7.32249902,14.8010136 7.9151271,14.7629161 L12.012727,18.1705275 L16.1103268,14.7629161 C16.707188,14.8010136 17.9136094,15.046531 18.9761069,15.7492185 C20.5381052,16.7820846 21.329687,18.4372102 21.329687,20.6595655 C21.329687,21.6881985 20.4957746,22.5221109 19.4671416,22.5221109 L4.56254539,22.5221109 Z M16.3727764,15.859278 L12.5206939,19.0679358 L12.5206939,21.506177 L19.4629085,21.506177 C19.9285449,21.506177 20.3095201,21.1252018 20.3095201,20.6595655 C20.3095201,18.4456763 19.3316838,17.2604201 18.5104706,16.6593259 C17.663859,16.0370665 16.7749169,15.8635111 16.5209334,15.8254136 L16.4362723,15.8127144 L16.3727764,15.859278 Z M7.50452051,15.8254136 C7.25053704,15.8635111 6.36159492,16.0370665 5.51498338,16.6593259 C4.69377018,17.2604201 3.71593385,18.4456763 3.71593385,20.6595655 C3.71593385,21.1252018 4.09690905,21.506177 4.56254539,21.506177 L11.50476,21.506177 L11.50476,19.0679358 L7.58918166,15.8084813 L7.51298662,15.8211805 L7.50452051,15.8254136 Z M12.012727,14.3946401 C8.74480642,14.3946401 6.08644617,11.7362798 6.08644617,8.46835927 C6.08644617,7.73604028 6.23460319,7.0037213 6.52668417,6.28833455 L6.59864615,6.11477918 L4.22390078,5.4120916 L4.22390078,7.02911965 L4.30432887,7.07991634 C4.57101151,7.23653947 4.7318677,7.50322211 4.7318677,7.79107003 C4.7318677,8.06621879 4.58794374,8.32020225 4.33819334,8.4852915 L4.23659995,8.55302042 L4.92658836,11.3045079 C4.95621976,11.4188005 4.93505447,11.5457922 4.87155861,11.6262203 C4.85039332,11.6516187 4.81652886,11.6854831 4.76996522,11.6854831 L3.0005471,11.6854831 C2.95398346,11.6854831 2.920119,11.6516187 2.89895371,11.6262203 C2.83545785,11.5457922 2.81429256,11.4188005 2.84392396,11.3045079 L3.53391237,8.54878736 L3.43231898,8.48105844 C3.18256858,8.31596919 3.03864462,8.06198573 3.03864462,7.78683698 C3.03864462,7.49898905 3.19950081,7.23230642 3.46618345,7.07145022 L3.54661154,7.02065353 L3.54661154,5.20890483 L3.13600494,5.09037921 C2.81429256,4.99301889 2.7,4.65860733 2.7,4.40462386 C2.7,4.1506404 2.81429256,3.81622884 3.13600494,3.71886851 L11.3439039,1.28486033 C11.5640229,1.22136446 11.7841419,1.1875 12.012727,1.1875 C12.2413121,1.1875 12.4614311,1.22136446 12.677317,1.28486033 L20.8852159,3.71886851 C21.2111614,3.81622884 21.3254539,4.1506404 21.3254539,4.40462386 C21.3254539,4.65860733 21.2111614,4.99301889 20.889449,5.09037921 L17.4310408,6.11901224 L17.5030028,6.2925676 C17.7950838,7.00795436 17.9432408,7.74027334 17.9432408,8.47259233 C17.9390078,11.7362798 15.2806475,14.3946401 12.012727,14.3946401 Z M7.52145274,6.54655107 C7.24207093,7.18574278 7.10238002,7.83340061 7.10238002,8.46835927 C7.10238002,11.1775162 9.30357003,13.3787062 12.012727,13.3787062 C14.7218839,13.3787062 16.9230739,11.1775162 16.9230739,8.46835927 C16.9230739,7.83340061 16.783383,7.18574278 16.5040012,6.54655107 L16.4447384,6.41109322 L12.6815501,7.52862046 C12.4656641,7.59211632 12.2413121,7.62598078 12.01696,7.62598078 C11.792608,7.62598078 11.5682559,7.59211632 11.3481369,7.52862046 L7.5849486,6.41109322 L7.52145274,6.54655107 Z M12.012727,2.20343385 C11.8264724,2.20343385 11.6910146,2.24153137 11.648684,2.25423054 L11.6359848,2.2584636 L4.39745614,4.40462386 L11.6317518,6.55078412 C11.7545105,6.58888164 11.8857352,6.60581387 12.012727,6.60581387 C12.1989815,6.60581387 12.3344394,6.56771635 12.3767699,6.55501718 L12.3894691,6.55078412 L19.6279978,4.40462386 L12.3894691,2.2584636 C12.2667104,2.22036608 12.1397187,2.20343385 12.012727,2.20343385 Z" id="Shape" fill="#284B52"></path>
    </g>
</svg>