<?xml version="1.0" encoding="UTF-8"?>
<svg viewBox="0 0 46 65" version="1.1" xmlns="http://www.w3.org/2000/svg" xmlns:xlink="http://www.w3.org/1999/xlink">
    <!-- Generator: Sketch 57.1 (83088) - https://sketch.com -->
    <title>Group 48 Copy 6</title>
    <desc>Created with Sketch.</desc>
    <g id="Logos" stroke="none" stroke-width="1" fill="none" fill-rule="evenodd">
        <g id="Official-logo-2019" transform="translate(-626.000000, -333.000000)">
            <g id="Group-48-Copy-6" transform="translate(626.000000, 333.000000)">
                <g id="Group-47">
                    <path d="M8.44709898,11.2182816 C8.44709898,9.66936018 9.70773065,8.41371123 11.2627986,8.41371123 L18.3020478,8.41371123 L18.3020478,0 L11.2627986,0 C5.04252671,0 0,5.02259577 0,11.2182816 L0,50.4822674 L4.22354949,49.0799822 L8.44709898,43.4708414" id="Line-15" fill="#E80D6D"></path>
                    <path d="M36.6040956,14.0228521 L36.6040956,11.2182816 C36.6040956,9.66936018 35.3434639,8.41371123 33.7883959,8.41371123 L16.894198,8.41371123 C17.580954,6.61590969 17.580954,6.61590969 17.0315492,4.41060646 C16.4821443,2.20530323 16.4249147,0 18.3020478,0 L33.7883959,0 C40.0086678,0 45.0511945,5.02259577 45.0511945,11.2182816 L45.0511945,14.0228521" id="Line-14" fill="#B0CC3B"></path>
                    <path d="M36.6040956,53.2868378 C36.6040956,54.8357593 35.3434639,56.0914082 33.7883959,56.0914082 L33.7883959,64.5051195 C40.0086678,64.5051195 45.0511945,59.4825237 45.0511945,53.2868378 L45.0511945,11.2182816 C43.9523849,12.1291678 42.3041705,13.2318194 41.2053609,12.6804936 C40.1065512,12.1291678 37.5426621,11.68571 36.6040956,12.6205668" id="Line-13" fill="#0896AB"></path>
                    <path d="M8.44709898,53.2868378 C8.44709898,54.8357593 9.70773065,56.0914082 11.2627986,56.0914082 L33.7883959,56.0914082 C35.1619079,57.337884 34.6125031,59.5431872 34.0630983,61.7484904 C33.6968284,63.2186926 33.6968284,64.1375689 34.0630983,64.5051195 L11.2627986,64.5051195 C5.04252671,64.5051195 1.49213975e-13,59.4825237 1.49213975e-13,53.2868378 L1.49213975e-13,45.2087162 C1.09880962,45.760042 1.98487962,45.8667837 4.39523849,44.6573904 C5.49404811,44.1060646 7.65239795,42.6792815 8.44709898,43.4708414" id="Line" fill="#FDC212"></path>
                </g>
            </g>
        </g>
    </g>
</svg>