<?xml version="1.0" encoding="UTF-8"?>
<svg viewBox="0 0 300 65" version="1.1" xmlns="http://www.w3.org/2000/svg" xmlns:xlink="http://www.w3.org/1999/xlink">
    <!-- Generator: Sketch 57.1 (83088) - https://sketch.com -->
    <title>Group 46 Copy</title>
    <desc>Created with Sketch.</desc>
    <g id="Logos" stroke="none" stroke-width="1" fill="none" fill-rule="evenodd">
        <g id="Official-logo-2019" transform="translate(-606.000000, -73.000000)">
            <g id="Group-46-Copy" transform="translate(606.000000, 73.000000)">
                <path d="M65.5290102,32.64457 C65.5290102,22.9509228 72.800912,15.3583618 83.0868256,15.3583618 C93.3727393,15.3583618 100.644641,22.9509228 100.644641,32.64457 C100.644641,42.6247289 93.3727393,50.4082977 83.0868256,50.4082977 C72.800912,50.4082977 65.5290102,42.6247289 65.5290102,32.64457 Z M71.8919243,32.64457 C71.8919243,39.5208517 76.5803872,44.7735669 83.0868256,44.7735669 C89.593264,44.7735669 94.281727,39.5208517 94.281727,32.64457 C94.281727,26.0548 89.593264,20.9930926 83.0868256,20.9930926 C76.5803872,20.9930926 71.8919243,26.0548 71.8919243,32.64457 Z M105.237421,41.1444182 L105.237421,27.4873587 C105.237421,26.1980559 105.955043,25.4817765 107.246762,25.4817765 L109.303945,25.4817765 C110.643506,25.4817765 111.313286,26.1980559 111.313286,27.4873587 L111.313286,39.9028673 C111.313286,42.8634886 112.07875,44.8690708 115.092762,44.8690708 C119.494176,44.8690708 121.93409,41.0011623 121.93409,36.6557343 L121.93409,27.4873587 C121.93409,26.1980559 122.603871,25.4817765 123.943431,25.4817765 L126.000614,25.4817765 C127.292334,25.4817765 128.009955,26.1980559 128.009955,27.4873587 L128.009955,47.8296921 C128.009955,49.1667469 127.292334,49.8352743 126.000614,49.8352743 L124.134797,49.8352743 C122.843078,49.8352743 122.173298,49.1667469 122.173298,47.8296921 L122.173298,46.3971334 C122.173298,45.8241099 122.26898,45.2988384 122.26898,45.2988384 L122.173298,45.2988384 C121.025102,47.7819401 117.867566,50.4082977 113.705359,50.4082977 C108.49064,50.4082977 105.237421,47.7819401 105.237421,41.1444182 Z M133.990138,47.8296921 L133.990138,27.4873587 C133.990138,26.1980559 134.659918,25.4817765 135.951638,25.4817765 L137.817455,25.4817765 C139.109174,25.4817765 139.826796,26.1980559 139.826796,27.4873587 L139.826796,29.7794526 C139.826796,30.6867398 139.683271,31.4507711 139.683271,31.4507711 L139.778954,31.4507711 C140.735784,28.5379017 143.414905,25.2907687 146.85949,25.2907687 C148.199051,25.2907687 148.677466,25.9592961 148.677466,27.2963509 L148.677466,29.1586772 C148.677466,30.44798 147.912002,31.1642593 146.620283,31.1642593 C142.171027,31.1642593 140.018162,35.5574393 140.018162,39.9983713 L140.018162,47.8296921 C140.018162,49.1667469 139.348381,49.8352743 138.056662,49.8352743 L135.951638,49.8352743 C134.659918,49.8352743 133.990138,49.1667469 133.990138,47.8296921 Z M152.600465,47.8296921 L152.600465,17.9369674 C152.600465,16.6476646 153.270246,15.9313853 154.561965,15.9313853 L165.661184,15.9313853 C172.024098,15.9313853 176.473353,20.3723172 176.473353,26.9620872 C176.473353,33.5518571 172.024098,38.136045 165.661184,38.136045 L158.724172,38.136045 L158.724172,47.8296921 C158.724172,49.1667469 158.054392,49.8352743 156.762672,49.8352743 L154.561965,49.8352743 C153.270246,49.8352743 152.600465,49.1667469 152.600465,47.8296921 Z M158.724172,32.7878258 L164.512989,32.7878258 C168.148939,32.7878258 170.206122,30.4957319 170.206122,26.9620872 C170.206122,23.4761944 168.148939,21.2318524 164.608671,21.2318524 L158.724172,21.2318524 L158.724172,32.7878258 Z M178.721902,37.6585254 C178.721902,30.1614682 183.793096,24.908753 191.11284,24.908753 C198.049851,24.908753 201.925009,29.8272045 201.925009,36.5124784 C201.925009,37.5630215 201.016022,38.5658126 199.819985,38.5658126 L184.941291,38.5658126 C185.324023,42.9589925 188.577242,45.2510864 192.261035,45.2510864 C194.509583,45.2510864 196.3754,44.3915512 197.523595,43.6752719 C198.719632,43.1022484 199.580778,43.2455043 200.202717,44.3437993 L200.776814,45.2988384 C201.350912,46.3971334 201.159546,47.3521725 200.107034,47.972948 C198.528266,48.975739 195.657778,50.4082977 191.830462,50.4082977 C183.745255,50.4082977 178.721902,44.5825591 178.721902,37.6585254 Z M185.084816,34.8889119 L195.896986,34.8889119 C195.801303,31.498523 193.74412,29.4929409 190.969315,29.4929409 C187.85962,29.4929409 185.658913,31.6417789 185.084816,34.8889119 Z M204.795497,37.6585254 C204.795497,30.2092202 210.775679,24.908753 218.191105,24.908753 C225.606532,24.908753 231.634555,30.2092202 231.634555,37.6585254 C231.634555,45.1555825 225.606532,50.4082977 218.191105,50.4082977 C210.775679,50.4082977 204.795497,45.1555825 204.795497,37.6585254 Z M210.967045,37.6585254 C210.967045,42.1949612 214.220264,45.2510864 218.191105,45.2510864 C222.161946,45.2510864 225.463007,42.1949612 225.463007,37.6585254 C225.463007,33.1698415 222.161946,30.0659643 218.191105,30.0659643 C214.220264,30.0659643 210.967045,33.1698415 210.967045,37.6585254 Z M236.083811,57.3800834 L236.083811,27.4873587 C236.083811,26.1980559 236.801433,25.4817765 238.093152,25.4817765 L239.624079,25.4817765 C240.915798,25.4817765 241.585579,26.1980559 241.585579,27.153095 L241.585579,28.25139 C241.585579,28.7766615 241.537737,29.2064291 241.537737,29.2064291 L241.63342,29.2064291 C241.63342,29.2064291 243.786286,24.908753 249.479419,24.908753 C256.081541,24.908753 260.339431,30.1137163 260.339431,37.6585254 C260.339431,45.3943423 255.555285,50.4082977 249.144529,50.4082977 C244.073335,50.4082977 242.111835,46.6836451 242.111835,46.6836451 L242.016152,46.6836451 C242.016152,46.6836451 242.159676,47.5431804 242.159676,48.7847312 L242.159676,57.3800834 C242.159676,58.7171381 241.489896,59.3856655 240.150335,59.3856655 L238.093152,59.3856655 C236.801433,59.3856655 236.083811,58.7171381 236.083811,57.3800834 Z M241.96831,37.8017813 C241.96831,41.5741858 244.073335,45.2988384 248.044176,45.2988384 C251.393078,45.2988384 254.167882,42.5769769 254.167882,37.7540293 C254.167882,33.1220895 251.680127,30.1137163 248.139859,30.1137163 C244.982322,30.1137163 241.96831,32.4058102 241.96831,37.8017813 Z M264.884369,42.2427132 L264.884369,17.9369674 C264.884369,16.6476646 265.55415,15.9313853 266.845869,15.9313853 L268.950893,15.9313853 C270.242613,15.9313853 270.912393,16.6476646 270.912393,17.9369674 L270.912393,41.7651936 C270.912393,44.1527915 271.917064,44.5825591 272.826051,44.678063 C273.687198,44.7735669 274.309137,45.2988384 274.309137,46.3971334 L274.309137,48.0206999 C274.309137,49.2622508 273.735039,50.074034 272.299795,50.074034 C269.046576,50.074034 264.884369,49.2144988 264.884369,42.2427132 Z M276.796892,37.6585254 C276.796892,30.1614682 281.868087,24.908753 289.18783,24.908753 C296.124842,24.908753 300,29.8272045 300,36.5124784 C300,37.5630215 299.091012,38.5658126 297.894976,38.5658126 L283.016282,38.5658126 C283.399014,42.9589925 286.652233,45.2510864 290.336025,45.2510864 C292.584574,45.2510864 294.450391,44.3915512 295.598586,43.6752719 C296.794622,43.1022484 297.655769,43.2455043 298.277707,44.3437993 L298.851805,45.2988384 C299.425902,46.3971334 299.234537,47.3521725 298.182025,47.972948 C296.603256,48.975739 293.732769,50.4082977 289.905452,50.4082977 C281.820246,50.4082977 276.796892,44.5825591 276.796892,37.6585254 Z M283.159806,34.8889119 L293.971976,34.8889119 C293.876293,31.498523 291.819111,29.4929409 289.044306,29.4929409 C285.934611,29.4929409 283.733904,31.6417789 283.159806,34.8889119 Z" id="OurPeople" fill="#284B52" fill-rule="nonzero"></path>
                <g id="Group-48-Copy-6">
                    <g id="Group-47">
                        <path d="M8.44709898,11.2182816 C8.44709898,9.66936018 9.70773065,8.41371123 11.2627986,8.41371123 L18.3020478,8.41371123 L18.3020478,0 L11.2627986,0 C5.04252671,0 0,5.02259577 0,11.2182816 L0,50.4822674 L4.22354949,49.0799822 L8.44709898,43.4708414" id="Line-15" fill="#E80D6D"></path>
                        <path d="M36.6040956,14.0228521 L36.6040956,11.2182816 C36.6040956,9.66936018 35.3434639,8.41371123 33.7883959,8.41371123 L16.894198,8.41371123 C17.580954,6.61590969 17.580954,6.61590969 17.0315492,4.41060646 C16.4821443,2.20530323 16.4249147,0 18.3020478,0 L33.7883959,0 C40.0086678,0 45.0511945,5.02259577 45.0511945,11.2182816 L45.0511945,14.0228521" id="Line-14" fill="#B0CC3B"></path>
                        <path d="M36.6040956,53.2868378 C36.6040956,54.8357593 35.3434639,56.0914082 33.7883959,56.0914082 L33.7883959,64.5051195 C40.0086678,64.5051195 45.0511945,59.4825237 45.0511945,53.2868378 L45.0511945,11.2182816 C43.9523849,12.1291678 42.3041705,13.2318194 41.2053609,12.6804936 C40.1065512,12.1291678 37.5426621,11.68571 36.6040956,12.6205668" id="Line-13" fill="#0896AB"></path>
                        <path d="M8.44709898,53.2868378 C8.44709898,54.8357593 9.70773065,56.0914082 11.2627986,56.0914082 L33.7883959,56.0914082 C35.1619079,57.337884 34.6125031,59.5431872 34.0630983,61.7484904 C33.6968284,63.2186926 33.6968284,64.1375689 34.0630983,64.5051195 L11.2627986,64.5051195 C5.04252671,64.5051195 1.49213975e-13,59.4825237 1.49213975e-13,53.2868378 L1.49213975e-13,45.2087162 C1.09880962,45.760042 1.98487962,45.8667837 4.39523849,44.6573904 C5.49404811,44.1060646 7.65239795,42.6792815 8.44709898,43.4708414" id="Line" fill="#FDC212"></path>
                    </g>
                </g>
            </g>
        </g>
    </g>
</svg>